<?xml version="1.0" encoding="UTF-8"?>
<svg xmlns="http://www.w3.org/2000/svg" version="1.1" viewBox="0 0 1040.88 1501.18">
  <defs>
    <style>
      .cls-1 {
        fill: #efe5d1;
      }

      .cls-2 {
        fill: #f7e9d6;
      }

      .cls-3 {
        fill: #080f0c;
      }

      .cls-4 {
        fill: #f2eeda;
      }

      .cls-5 {
        fill: #f94c14;
      }

      .cls-6 {
        fill: #ef6d01;
      }

      .cls-7 {
        fill: #f94b13;
      }

      .cls-8 {
        fill: #b51e01;
      }

      .cls-9 {
        fill: #fce6a6;
      }

      .cls-10 {
        fill: #ee5c06;
      }

      .cls-11 {
        fill: #f06c01;
      }

      .cls-12 {
        fill: #b91f02;
      }

      .cls-13 {
        fill: #fb9b01;
      }

      .cls-14 {
        fill: #b41e01;
      }

      .cls-15 {
        fill: #f3e7ce;
      }

      .cls-16 {
        fill: #a1aaa9;
      }

      .cls-17 {
        fill: #f8e9d6;
      }

      .cls-18 {
        fill: #fa4b13;
      }

      .cls-19 {
        fill: #a2abab;
      }

      .cls-20 {
        fill: #070e0c;
      }

      .cls-21 {
        fill: #f84c16;
      }

      .cls-22 {
        fill: #fff;
      }

      .cls-23 {
        fill: #0a0a08;
      }

      .cls-24 {
        fill: #f94a12;
      }

      .cls-25 {
        fill: #ed4910;
      }

      .cls-26 {
        fill: #a3acab;
      }

      .cls-27 {
        fill: #f2e7cf;
      }

      .cls-28 {
        fill: #ee5e04;
      }

      .cls-29 {
        fill: #f7ead6;
      }

      .cls-30 {
        fill: #f2ecd3;
      }

      .cls-31 {
        fill: #ee7a0f;
      }

      .cls-32 {
        fill: #f3edd6;
      }

      .cls-33 {
        fill: #090a08;
      }

      .cls-34 {
        fill: #e9e9da;
      }

      .cls-35 {
        fill: #8dbdc3;
      }

      .cls-36 {
        fill: #f1e7d1;
      }

      .cls-37 {
        fill: #b71d01;
      }

      .cls-38 {
        fill: #e75c02;
      }

      .cls-39 {
        fill: #5f87af;
      }

      .cls-40 {
        fill: #f99501;
      }

      .cls-41 {
        fill: #e8e7d7;
      }

      .cls-42 {
        fill: #f7e9d5;
      }

      .cls-43 {
        fill: #f17601;
      }

      .cls-44 {
        fill: #f3e9d8;
      }

      .cls-45 {
        fill: #d54001;
      }

      .cls-46 {
        fill: #090a09;
      }

      .cls-47 {
        fill: #f94b12;
      }

      .cls-48 {
        fill: #f99101;
      }

      .cls-49 {
        fill: #ee6205;
      }

      .cls-50 {
        fill: #f5e4c7;
      }

      .cls-51 {
        fill: #f88f01;
      }

      .cls-52 {
        fill: #faf8f2;
      }

      .cls-53 {
        fill: #f6e4cf;
      }

      .cls-54 {
        fill: #111211;
      }

      .cls-55 {
        fill: #f2ecd5;
      }

      .cls-56 {
        fill: #f8f7f2;
      }

      .cls-57 {
        fill: #070d0b;
      }

      .cls-58 {
        fill: #f1ebd5;
      }

      .cls-59 {
        fill: #d74401;
      }

      .cls-60 {
        fill: #b41f01;
      }

      .cls-61 {
        fill: #f7ead5;
      }

      .cls-62 {
        fill: #cee0ef;
      }

      .cls-63 {
        fill: #fa9601;
      }

      .cls-64 {
        fill: #a3acac;
      }

      .cls-65 {
        fill: #f3e8d3;
      }

      .cls-66 {
        fill: #ec6401;
      }

      .cls-67 {
        fill: #f06705;
      }

      .cls-68 {
        fill: #edefef;
      }

      .cls-69 {
        fill: #f99301;
      }

      .cls-70 {
        fill: #070a09;
      }

      .cls-71 {
        fill: #1b385b;
      }

      .cls-72 {
        fill: #090b09;
      }

      .cls-73 {
        fill: #e8e8e8;
      }

      .cls-74 {
        fill: #b81d01;
      }

      .cls-75 {
        fill: #efe8d6;
      }
    </style>
  </defs>
  <!-- Generator: Adobe Illustrator 28.6.0, SVG Export Plug-In . SVG Version: 1.2.0 Build 709)  -->
  <g>
    <g id="katman_1">
      <path class="cls-33" d="M541.53,1222.29c-28.87-.76-56.46-1.58-83.85-5.24-25.21-3.38-50.27-7.56-73.48-18.87-4.69-2.28-8.87-5.23-12.47-9.02-6.13-6.44-6.24-14.77-.41-21.59,4.9-5.74,11.18-9.32,17.99-12.22,18.18-7.75,37.53-11.09,56.7-15.09,11.05-2.3,22.45-3.73,32.27-9.73,14.67-8.96,21.88-23.42,24.74-39.42,6.02-33.65-.73-64.85-21.98-92.12-8.36-10.73-19.18-18.83-31.11-25.44-15.42-8.55-31.36-16.18-46.25-25.66-22.75-14.49-42.74-32.09-60.18-52.71-29.56-34.93-47.22-75.28-54.89-120.09-3.63-21.2-3.54-42.6-2.58-64.13,2.29-51.13,17.85-98.76,36.3-145.79,10.38-26.45,20.97-52.85,27.46-80.65,5.24-22.41,8.69-44.99,7.54-68.11-1.18-23.8-6.98-46.58-14.99-68.86-2.7-7.5-6.07-14.76-9.12-22.13-2.21-5.35-1.43-7.79,3.78-10.36,8-3.95,16.75-5.26,25.44-6.66,9.51-1.54,19.1-2.27,28.72-2.53,3.42-.09,1.7-1.99,1.36-3.28-3.59-13.48-7.2-26.95-10.87-40.41-1.66-6.09-3.7-12.09-5.13-18.23-.85-3.67-2.82-5.73-6.14-7.16-15.89-6.83-32.23-12.52-48.39-18.65-20.51-7.78-41.04-15.53-61.53-23.38-7.27-2.78-9.45-7.12-7.99-16.61.7-4.57,1.89-9.14,3.45-13.49,2.61-7.29,10.26-9.72,18.18-6.35,26.77,11.41,53.55,22.77,80.35,34.11,11.64,4.92,23.38,9.61,34.97,14.64,14.23,6.18,21.04,18.23,24.85,32.43,5.34,19.88,10.66,39.76,15.76,59.7.91,3.56,2.62,4.29,5.96,4.1,13.27-.77,26.56-1.72,39.84-1.82,33.66-.24,67.32-.55,100.97.15,22.77.47,45.58.46,68.3,2.46,4.4.39,3.15-1.97,2.44-4.28-4.67-15.25-9.43-30.47-13.94-45.77-2.16-7.32-3.67-14.83-5.78-22.16-.8-2.79-.29-4.26,2.28-5.59,15.05-7.78,30.81-13.29,47.74-14.93,29.76-2.89,58.21,2.54,85.65,13.94,12.45,5.18,23.05,13.35,33.08,22.05,27.72,24.05,46.37,53.68,53.78,89.99,5.3,25.96,3.55,51.6-3.67,76.88-9.13,31.96-27.3,58.01-52.31,79.74-14.85,12.9-30.88,23.65-49.01,31.18-3.77,1.57-4.48,3.39-3.07,7.15,8.66,23.04,17.84,45.88,27.3,68.6,9.9,23.77,15.31,48.73,19.58,74,2.8,16.56,4.6,33.19,5.08,50,.74,26.14-2.6,51.73-9.39,76.89-8.83,32.74-24.69,61.94-45.4,88.62-24.24,31.23-55.69,53.6-89.82,72.58-15.29,8.5-30.46,17.12-43.51,28.94-17.06,15.45-25.03,35.66-29.87,57.46-3.33,15.01-2.88,30.11.27,45.03,5.17,24.5,22.7,40.34,48.92,44.78,20.79,3.52,41.62,6.89,61.25,15.06,6.73,2.8,13.59,5.27,18.92,10.77,9.95,10.27,7.98,20.2-2.43,27.95-12.33,9.18-26.96,13.51-41.72,17.13-19.55,4.79-39.47,7.16-59.47,9.18-20.55,2.08-41.18,2.11-60.5,3.03Z"/>
      <path class="cls-43" d="M463.27,261.39c-.03-4.76,3.72-8.95,8.08-9.02,4.8-.08,8.83,3.88,8.93,8.79.1,5.06-3.59,9.06-8.45,9.15-4.97.09-8.53-3.61-8.56-8.92Z"/>
      <path class="cls-43" d="M604.28,253.97c-.07,5.09-3.42,8.44-8.33,8.34-4.59-.09-7.81-3.58-7.74-8.4.07-4.83,3.77-8.52,8.47-8.44,4.66.07,7.67,3.45,7.6,8.51Z"/>
      <path class="cls-43" d="M537.19,276.57c-.51,2.65-1.84,4.28-4.69,4.09-2.44-.17-3.39-1.55-3.29-3.97.12-2.81,1.78-3.67,4.21-3.71,2.46-.05,3.5,1.4,3.76,3.6Z"/>
      <path class="cls-39" d="M292.44,698.33c1.48-19.85,4.97-39.35,10.58-58.45,2.56-3.86,2.81-8.49,4.16-12.74,1.55-4.9,3.04-9.82,4.69-14.69.45-1.33.35-4.15,3.41-2.84,2.24.96,4.38,1.78,3.49,4.97-1.19,4.32-2.27,8.66-3.95,12.84-1.31,3.25-2.04,6.64-1.67,10.19-1.41,9.58-4.44,18.79-6.34,28.27-3.22,16.03-5.24,32.14-6.13,48.5-1.53,28.23,1.39,55.89,9.34,82.94,12.34,41.97,33.8,78.5,66.3,108.14,39.02,35.6,84.62,57.71,137.01,64.71,36.01,4.81,71.04-.72,105.06-13.22,13.36-4.91,25.72-11.77,38.21-18.45,1.76-.94,3.41-2.1,5.33-2.72,5.33-.06,8.4-4.21,12.3-6.86.35-.31.74-.57,1.13-.81,2.03-1.26,4.58-1.09,6.28-3.71,1.33-2.05,5.24-.79,7.48-3.1,3.71-3.83,3.83,1.57,5.35,2.69,2.23,1.63-.47,3.44-1.43,3.46-4.96.1-5.76,4.71-8.48,7.19l-.08-.38.06.38c-2.94.19-5.5,4.11-8.79.9-.06-.06-.18-.26-.15-.18,1.8,5.03-3.58,5.91-5.17,8.96-16.12,9.55-32.2,19.15-48.36,28.64-30.44,17.88-45.81,45.53-51.75,79.38-2.89,16.48-2.31,32.81,2.71,48.78,7.72,24.56,24.81,38.6,49.92,42.99,20.25,3.54,40.65,6.37,59.93,13.97,7.7,3.03,15.57,5.9,20.64,13.13.57,4.46-1.87,7.02-5.54,8.83-8.26,1.98-16.2,5.02-24.34,7.4-22.15,6.49-44.83,9.95-67.68,12.56-17.03,1.94-34.07,3.83-51.25,3.66-1.37-.01-2.61.5-3.9.79-17.37.66-34.74.08-52.11.19-2.32.01-4.64-.02-6.89.69-9.64-.15-19.16-1.78-28.75-2.57-21.13-1.74-41.9-5.42-61.97-12.45-8.02-2.81-15.9-6-22.57-11.49-2.08-1.71-4.15-3.47-3.58-6.63,3.59-5.54,9.1-8.51,14.86-11.17,17.19-7.91,35.65-11.18,54.01-14.85,7.97-1.59,15.89-3.42,23.79-5.34,19.99-4.85,31.27-19,37.47-37.29,15.66-46.21-1.58-107.89-52.99-135.05-17.61-9.3-35.45-18.21-51.89-29.56-56.55-39.03-91.9-92-105.03-159.6-2-10.29-3.29-20.65-3.7-31.12.91-5.24.32-10.53.31-15.79,0-9.58.32-19.13,1.03-28.68.13-1.78.37-3.63-.34-5.39Z"/>
      <path class="cls-40" d="M729.41,493.32c-5.32-12.43-8.2-25.54-8.99-38.89-1.42-24.22-.83-48.39,6.78-71.81,2.96-9.1,6.14-18.13,9.22-27.19,6.03-8.19,14.63-13.54,22.4-19.72,8.47-6.73,17.16-13.2,25.76-19.79,10.43-7.99,18.35-6.33,24.21,5.31,6.22,12.35,10.05,25.38,9.94,39.36-.02,2.51.3,4.98.62,7.46.83,6.41-1.69,11.8-5.62,16.55-2.58,3.12-6.48,2.47-9.86,2.1-11.58-1.26-23.21-2.02-34.8-3.25-10.1-1.07-20.22-1.89-30.27-3.38-1.8-.27-3.64-.21-5.39,1.59,2.05,2.04,4.6,1.81,6.93,2.13,20.14,2.71,40.31,5.16,60.43,7.97,13.2,1.85,16.45,7.28,12.27,20.07-5.63,17.21-14.5,32.51-27.75,45.07-2.19,2.07-4.52,3.94-7.06,5.54-6.87,4.34-10.92,3.82-16.07-2.38-5.33-6.41-10.28-13.11-14.94-20.02-5.58-8.29-11.11-16.63-17.72-24.16-.83-.94-1.29-2.36-3.14-2.48.1,2.75,1.73,4.67,3.12,6.68,9.46,13.72,19.76,26.83,29.19,40.57,5.17,7.53,4.77,13.33-2.09,19.46-7.05,6.29-15.86,9.7-24.33,13.59-.93.43-1.96.33-2.83-.38Z"/>
      <path class="cls-9" d="M729.41,493.32c8.39-3.61,16.78-7.3,24.2-12.67,6.45-4.67,10.05-11.34,3.37-19.94-10.2-13.12-19.57-26.87-29.33-40.33-1.58-2.17-3.08-4.36-3.4-7.1-.15-1.32-.31-2.97,1.16-3.51,1.23-.45,1.96.99,2.67,1.82,6.99,8.06,13.31,16.63,19.11,25.56,4.72,7.27,10.09,14.05,15.34,20.92,5.5,7.2,8.98,7.86,16.2,2.21,11.42-8.93,20.51-19.96,26.42-33.26,2.68-6.03,5.73-11.96,7.24-18.5,2.24-9.72-.16-13.59-10.25-15.02-13.16-1.87-26.37-3.37-39.55-5.09-9.22-1.21-18.42-2.48-27.62-3.82-1.66-.24-4.48.14-4.32-2.13.16-2.29,2.38-4.16,4.95-4.1,3.63.09,7.25.71,10.88,1.07,19.34,1.93,38.66,4,58.02,5.68,7.89.68,11.24-2.32,12.81-10.22,1.39-6.97.16-13.98-.38-20.9-.89-11.51-4.54-22.38-9.77-32.69-5.08-10.01-12.16-11.71-20.83-4.73-16.05,12.94-33.14,24.57-48.53,38.35-.34.31-.92.35-1.39.51,2.35-5.82,4.71-11.63,7.06-17.45,1.34-2.18,3.3-3.69,5.31-5.2,9.98-7.49,20.23-14.66,29.65-22.87,4.24-3.7,8.65-7.48,8.31-14.04-.14-2.6-.88-4.81-2.51-6.88-11.16-14.11-25.58-23.64-42.25-29.92-8.46-3.19-13.47-.82-16.18,7.75-5.77,18.25-11.55,36.49-17.62,54.64-.68,2.04-1.12,4.22-2.91,5.69-2.61,1.21-5.35,1.42-8.17,1.18-1.42-2.36-.22-4.57.59-6.67,6.55-17.1,11.86-34.6,17.45-52.01.81-2.53,1.69-5.06,2.15-7.68,1.29-7.23-1.21-11.07-8.43-12.67-9.2-2.05-18.51-1.68-27.81-.95-12.57.98-23.91,5.43-34.28,12.52-1.33.91-2.65,2.12-4.52,1.47-1.95-5.9-3.7-11.85-4.88-17.96,1.08-2.11,3.15-2.9,5.13-3.75,13.12-5.63,26.77-8.96,41.05-9.98,38.99-2.79,73.48,8.78,103.32,33.46,26.32,21.77,40.62,50.3,45.09,84.25,2.37,17.96,1.59,35.51-1.72,53.13-4.25,22.6-15.94,41.46-29.83,59.19-15.87,20.25-36.28,34.61-59.4,45.4-2.08.97-4.14,2.27-6.64,1.47-1.66-4.74-3.32-9.48-4.98-14.22Z"/>
      <path class="cls-69" d="M734.39,507.54c15.34-7.25,30.63-14.72,43.49-25.99,26.54-23.26,46.72-50.81,52.02-86.56,6.25-42.16-.72-81.64-29.1-115.14-17.88-21.11-40.81-34.8-67.32-42.55-17.92-5.24-36.19-7.14-54.72-4.92-12.89,1.55-25.43,4.77-37.26,10.32-1.34.63-2.74,1.12-4.11,1.68-5.54-14.74-5.48-14.6,9.09-20.09,33.22-12.52,66.27-9.98,99.44.33,25.57,7.95,45.78,23.63,63.68,42.84,20.33,21.82,32.05,48.13,36.31,77.12,6.92,47.1-5.58,89.5-35.9,126.26-18.17,22.03-40.89,38.16-67.24,49.22-3.25,1.36-4.58.61-5.39-2.59-.84-3.34-1.99-6.61-3-9.91Z"/>
      <path class="cls-73" d="M651.62,312.47c1.54,4.87,3.22,9.71,4.6,14.63,1.69,6.02,1.59,6.06-4.52,6.19-19.12.39-38.25.4-57.35,1.23-31.77,1.38-63.54,1.14-95.31.7-19.24-.26-38.45-1.9-57.68-2.84-2.03-.1-2.86-.82-3.3-2.81-.89-4.05-2.05-8.04-3.24-12.01-.54-1.83-.96-3.29,1.76-3.38.98-.03.38-.47,0-.61-.46-.17-.97-.21-1.46-.3,1.11-3.16,3.93-2.64,6.27-2.7,39.19-1,78.4-.89,117.6-.66,28.24.16,56.46,1.53,84.71,1.73,2.66.02,5.31.22,7.92.83Z"/>
      <path class="cls-51" d="M642.27,262.33c12.34-9.8,26.46-15.05,42.13-15.83,7.78-.39,15.61-.66,23.37.8,10.44,1.96,13.62,6.8,10.62,16.94-2.59,8.74-5.37,17.42-8.26,26.06-4.25,12.71-8.67,25.36-13.01,38.03-8.32,1.69-16.76,1.86-25.2,2.2q-8.84.36-11.5-8.16c-5.97-19.2-11.94-38.39-17.88-57.6-.24-.77-.19-1.63-.27-2.44Z"/>
      <path class="cls-48" d="M705.28,327.16c2.28-7.42,4.51-14.86,6.84-22.26,4.09-12.95,8.14-25.91,12.39-38.81,3-9.11,8.27-11.89,17.19-8.67,17.71,6.39,32.76,16.7,44.48,31.59,3.17,4.02,3.06,10.63-.08,14.85-3.91,5.26-9.02,9.24-14.17,13.19-9.35,7.17-18.48,14.63-28.46,20.94,1.6-3.79,3.25-7.56,4.77-11.39,1.9-4.78-.34-8.01-5.55-8.26-2.92-.14-5.49.88-8.15,1.85-9.49,3.44-19.12,6.33-29.28,6.97Z"/>
      <path class="cls-71" d="M698.17,1179.02c2.52-2.1,4.7-4.43,5.34-7.81,4.28,7,3.61,11.57-2.81,16.28-13.02,9.56-28.17,14.07-43.59,17.68-21.2,4.96-42.71,7.59-64.43,9.36-27.11,2.21-54.23,2.48-81.3,1.39-38.84-1.56-77.61-4.56-114.55-18.43-6.42-2.41-12.51-5.41-18.16-9.31-5.83-4.02-7.08-9.48-3.75-16.01,2.59,5.71,7.85,8.44,12.99,11,14.96,7.43,31.08,11.27,47.36,14.36,18.55,3.51,37.43,4.37,56.16,6.42,7.62-.83,15.21.15,22.82.26,17.07.25,34.12-.18,51.18-.51,38.16-2.02,76.2-4.94,112.91-16.77,6.79-2.19,13.05-5.69,19.82-7.92Z"/>
      <path class="cls-39" d="M684.57,934.63c.19-2.22,2.55-3.55,2.11-6.29-.23-1.44,2.22-2.34,3.96-1.77,1.72.56,2.88.2,4.08-1.74-3.08.28-6.21.32-1.43-4.87-4.31,2.94-6.36,6.42-10.63,4.83-.62-.23-1.88.99-1.78,2.04.14,1.47.02,3.07-1.34,3.36-2.24.48.19-1.88-.91-2.08-1.24-.22-2.21,1.49-3.65.74.33-3.33,3.21-4.52,5.42-6.12,15.21-10.98,28.65-23.91,40.94-37.99,19.92-22.83,32.61-49.68,42.66-78,7.59-21.37,11.66-43.26,12.85-65.92,1.29-24.64-1.38-48.82-5.78-72.94-.36-1.96-.85-3.91-.8-5.93.22-3.42,2.6-6.88-.74-10.23-.89-.89-.52-3.42,1.3-3.59,2.56-.23,5.59-.02,6.76,2.9,1.22,3.04,2.11,6.28,1.97,9.61-.06,1.62.02,2.86,1.86,3.26,3.62,14.87,5.47,30.02,6.74,45.23,4.66,55.7-7.97,107.38-36.99,155.02-17.16,28.16-39.35,51.73-66.58,70.45Z"/>
      <path class="cls-39" d="M718.09,395.27c-2.09,12.28-3.29,24.66-3.74,37.1-1.05,28.93,5.41,56.47,15.84,83.23,1.19,3.04,2.18,6.16,3.26,9.25-1.23,3.06-2.4.77-2.78-.28-1.56-4.35-4.26-8.21-5.28-12.79-.68-3.05-1.25-6.15-4.04-8.25-1.51-1.14-1.21-2.96-1.06-4.61.17-1.86.08-3.68-1.19-5.17-.92-1.08-2.2-1.62-3.56-1.1-1.5.57-1.05,1.95-.72,3,.97,3.03.78,6.48,4.5,8.32,2.54,1.26.75,5.15-3.42,7.51-2.78-2.13-2.36-5.7-3.82-8.43-3.3-11.85-6.36-23.75-8.57-35.85-.39-2.12-1.02-4.21-.79-6.41-1.12-9.07-1.63-18.18-1.22-27.3.64-13.94,1.69-27.84,5.38-41.39,3.41-14.12,7.44-28.06,11.99-41.85.77-2.37,1.83-4.63,2.63-7,.95-2.84-.13-3.74-2.86-3.26-6.23,1.09-12.54,1.61-18.78,2.69-2.74.28-5.46.66-8.18,1.05-8.12.37-16.17,2.05-24.34,1.14-2.17.33-4.34.15-6.51.04-13.03,2.08-26.22,1.45-39.3,1.86-19.09.6-38.18,1.94-57.3,1.35-1.33-.04-2.66-.13-3.97-.39-2.58-.75-5.2-.95-7.89-.94-12.98.05-25.96-.08-38.94.05-12.97.13-25.87-1.51-38.84-1.23-1.29-.29-2.55-.85-3.9-.76-9.99.62-19.9-.9-29.87-1.17-13.24-.36-26.49-.95-39.62-3.4-6.15-1.15-12.56-.97-18.71-2.51-1.23-.31-3.16-.27-2.98-1.89.23-2.03,2.32-1.56,3.66-1.37,21.07,3.04,42.35,3.29,63.54,4.67,12.91.84,25.86,1.42,38.78,2.17,22.44.9,44.9.78,67.34.41,31.7-.51,63.41-1.39,95.09-2.87,5.11-.24,10.29.36,15.26-1.35.7-.02,1.39-.04,2.09-.05,10.16.75,20.18-.81,30.17-2.13,12.16-1.61,24.49-2.33,36.26-6.19.31-.11.62-.27.94-.31,1.86-.22,3.87-2.29,5.51-.36,1.35,1.59-.29,3.5-.92,5.04-7.67,18.7-13.49,38-18.92,57.43-.4,1.43-1.02,2.84-.25,4.33Z"/>
      <path class="cls-39" d="M312.17,637.25c-1.78-3.34.15-6.38.95-9.43,1.18-4.48,2.8-8.83,4.19-13.26.46-1.48,1.69-2.97-1.59-3.23-1.81-.14-2.4-.73-3.15,1.41-2.79,7.98-4.94,16.14-7.22,24.27-.33,1.19.38,3.5-2.32,2.86,3.14-14.92,8.37-29.21,13.49-43.51,10.89-30.4,24.09-59.96,33.48-90.91,8.82-29.08,14.52-58.72,13.12-89.29-1.11-24.24-6.91-47.54-15.41-70.2-2.74-7.29-5.54-14.58-9.48-21.32-1.22-2.09-1.2-3.32,1.16-4.17,8.58-2.51,17.14-5.09,26.14-5.68,1.41-.09,3.38-1.03,3.6,1.12.15,1.48-1.81,1.58-3.09,1.82-4.24.77-8.42,1.85-12.67,2.61-4.71.84-4.75,1.57-3.87,6.13,1.97,10.1,7.64,18.66,11.1,28.13,1.71,4.69,3.26,9.4,4.26,14.3.15.73-1,2.63,1.31,2.3,1.66,1.17,1.97,3.04,2.43,4.79,4.7,17.67,5.53,35.73,5.6,53.91.14,40.1-11.99,77.3-26.4,113.99-9.85,25.08-20.24,49.95-28.69,75.56-1.41,4.27-2.52,8.62-3.89,12.9-.6,1.88-.93,3.95-3.04,4.9Z"/>
      <path class="cls-39" d="M716.31,511.29c1.39-1.75.78-4.67,3.73-5.87-2.96.19-4.6-.79-5.08-3.54-.37-2.11-1.48-4.15-1.52-6.23-.03-1.58-2.95-4.12.39-4.74,2.56-.47,6.18-1.17,7.38,2.92.23.8.95,1.72.73,2.33-2.1,5.95,4.15,9,4.74,14.01.62,5.28,4.01,9.6,5.36,14.64.06.24.44.57.66.56.26,0,.5-.34.76-.53,13.68,39.16,32.72,76.34,43.12,116.7,1.9,7.39,3.23,14.93,4.83,22.4-.66,3.28-1.57.31-2.36.09.78-1.75-3.54-1.35-1.55-3.38,2.99-3.04.2-5.76-.32-8.5-.56-2.89-3.82-1.99-5.76-3.01-1.05-.56-1.25.91-1.03,1.59.32.99-.05,3.08,2.07,2.21,1.07-.44,1.93-.77,2.45.39.39.86-.21,1.56-1.09,1.91-2.91,1.15-.43,4.51-2.47,6.01-2.1-1.29-2.31-3.56-2.81-5.61-6.47-26.94-17.29-52.29-28.06-77.68-3.95-9.31-7.51-18.78-11.73-27.98-4.8-10.89-8.5-22.18-12.16-33.48-.55-1.68-1.38-3.42-.27-5.23Z"/>
      <path class="cls-17" d="M369.38,204.37c10.8,4.69,22.56,7.6,30.67,17.15,4.63,5.45,7.39,11.64,8.21,18.71-3.32,6.16-8.66,10.39-13.99,14.65-.49.08-.97.03-1.44-.12-2.29-3.91-2.79-8.43-4.22-12.62-3.24-9.48-7.65-17.76-17.93-21.21-.94-.32-1.71-1.03-2.23-1.94-.27-.51-.44-1.04-.55-1.6-.07-4.41-1.64-8.98,1.49-13.01Z"/>
      <path class="cls-39" d="M651.62,312.47c-.6,2.82-2.76,1.2-4.04,1.18-44.58-.68-89.13-2.44-133.73-2.48-24.96-.02-49.9.82-74.85,1.45-1.3.03-2.58.42-3.88.65-2.27-.1-2.04-1.84-1.98-3.26.07-1.49,1.42-1.04,2.3-1.11,2.97-.23,5.92-.92,8.92-.38,6.79,1.03,13.56-.03,20.33-.23,34.18-1,68.37-.15,102.56-.46,1.64-.01,3.32.3,4.93-.34,19.75.55,39.49,1.1,59.24,1.63,5.31.14,10.63.21,15.94.36,2.04.06,4.06.25,4.25,2.99Z"/>
      <path class="cls-7" d="M394.32,254.01c4.65-4.59,9.29-9.18,13.94-13.77,3.3,12.35,6.62,24.71,9.9,37.07.51,1.9.86,3.85,1.28,5.78-2.66,5.75-5.78,11.03-12.78,12.28-2.22-2.02-2.73-4.88-3.41-7.54-2.57-10.06-5.01-20.15-8.54-29.93-.46-1.27-.59-2.56-.38-3.89Z"/>
      <path class="cls-39" d="M365.42,371.17c-1.57,2.84-1.35-.26-1.41-.54-2.52-11.61-7.46-22.32-12.57-32.92-2-4.16-3.04-8.43-3.79-12.89-.58-3.46,2.02-4.32,4.25-5.17,5.22-1.97,10.76-2.8,16.2-3.99-7.96.14-15.66,1.76-23.28,3.96-1.74.5-3.37,2.37-5.45.86,9.14-4.74,19.24-5.58,29.16-6.99,7.67-1.09,15.44-1.51,23.16-2.21,1.77-.16,3.81-.69,3.82,2.22-.28,1.64-1.61,2.1-2.91,2.26-13.15,1.61-26.23,3.7-39.36,5.51-1.61.24-3.7.14-3.85,2.26-.17,2.46,2.01,3.29,3.94,3.79,11.22,2.91,22.48,5.73,34.02,6.91,26.93,2.76,53.98,3.8,81,5.14,5.64.28,11.26.76,16.89,1.14.32.17.52.43.59.79-.04.36-.2.65-.48.87-11.89-.94-23.82-1.22-35.7-2.03-21.45-1.47-43.02-1.56-64.36-4.7-1.6-.24-3.27-.03-4.93.35,14.83,2.09,29.55,4.93,44.55,5.56,15.57.65,31.13,1.35,46.69,2.01,1.02.04,1.99.17,2.67,1.04.28.61.15,1.11-.38,1.5-2.99,1.69-6.09.75-9.15.35-3.76-.49-7.56-.02-11.32-.53-.56-.06-1.11-.19-1.65-.37-3.81-1.09-7.68-.48-11.54-.44-1.15.17-2.29-.12-3.44-.06-5.02.31-10.04.43-15.04-.23-3.6-.85-7.32-.43-10.94-1.06-1.85-.4-3.71-.73-5.56-1.12-10.43-1-20.77-2.56-31.07-4.51-5.4-1.02-10.79-2.07-16.18-3.12-3.77-.73-4.31-.06-2.76,3.54,2.7,6.27,5.75,12.41,7.99,18.85,1.55,4.45,3.82,8.93,2.18,13.94Z"/>
      <path class="cls-14" d="M295.23,201.29c-11.26-3.27-22.13-7.64-33.03-11.9-3.83-1.5-5.39-4.37-5.18-8.61.26-5.37,1.69-10.44,3.51-15.37,1.85-5.02,6.1-5.34,12.89-1.39,1.14,3.54-1.53,5.95-2.74,8.72-1.4,3.2-.82,5,2.6,5.97,7.79,2.21,14.58,7.41,23.02,7.71.61.02.95.87,1.28,1.46.45.96.66,1.97.68,3.02-.94,3.48,1.15,7.85-3.03,10.38Z"/>
      <path class="cls-2" d="M407.41,295.42c4.62-3.52,7.95-8.3,12.03-12.34,3.7,13.44,7.4,26.88,11.1,40.32-.77,4.16-3.82,6.26-7.27,7.98-1.96-.06-3.93-.11-5.89-.17-.92-.73-1.89-1.45-2.19-2.65-2.71-10.64-6.98-20.85-8.59-31.79.1-.55.38-1,.82-1.35Z"/>
      <path class="cls-5" d="M369.38,204.37c-.1,4.66-.2,9.32-.3,13.98-1.85,1.62-3.81.74-5.65.1-9.44-3.27-18.56-7.32-27.6-11.53-2.21-1.03-3.85-2.59-4.61-4.97-.65-4.3-.67-8.5,2.15-12.19,12.1,4.62,24.32,8.96,36.01,14.61Z"/>
      <path class="cls-29" d="M333.38,189.75c.21,4.32-1.63,8.48-.95,12.84.41.76.46,1.48-.24,2.11-4.6.92-8.26-1.95-12.2-3.33-6.7-2.35-12.99-5.76-19.58-8.46-1.42-.58-2.58-1.49-3.11-3.01-.32-.42-.65-.84-.97-1.27,1.25-2.01-.77-3.66-.6-5.6.24-2.75,0-5.59,2.56-7.53,11.7,4.75,23.39,9.5,35.09,14.25Z"/>
      <path class="cls-37" d="M407.41,295.42c-.09.27-.16.54-.21.82-1.35,4.49-3.9,7.88-8.6,9.27-4.04-14.66-8.09-29.31-12.13-43.97,1.21-3.54,3.54-6,7.09-7.26.26-.06.51-.15.76-.26,5.33,9.7,6.68,20.68,9.93,31.05,1.08,3.45,2.11,6.91,3.16,10.36Z"/>
      <path class="cls-73" d="M353.24,321.27c9.61-4.46,20.08-4.56,30.29-5.95,4-.54,8.11-.34,11.97-1.82,1.82,4.61,2.88,9.43,4.09,14.22.54,2.13-.02,2.8-2.02,2.53-14.2-1.92-28.52-3.27-42.25-7.74-.75-.24-1.39-.82-2.08-1.25Z"/>
      <path class="cls-8" d="M332.09,204.29c.11-.57.22-1.13.33-1.7,1.43,2.58,4.19,3.1,6.57,4.11,9.89,4.24,19.47,9.29,30.09,11.65.09.23.18.46.28.68,2.76,5.84,1.75,9.05-3.29,10.5-12.21-4.31-24.36-8.8-36.02-14.48-1.37-3.98-1.04-7.63,2.04-10.76Z"/>
      <path class="cls-21" d="M298.29,175.51c-1.74,4.21,0,8.94-1.96,13.12-8.87-1.86-16.67-6.69-25.3-9.15-3.2-.91-4.04-2.26-2.54-5.22,1.71-3.38,3.29-6.83,4.93-10.25,8.29,3.83,16.58,7.66,24.87,11.49Z"/>
      <path class="cls-19" d="M332.09,204.29c-.68,3.59-1.36,7.17-2.04,10.76-11.61-4.59-23.21-9.17-34.82-13.76,2.16-3.53.26-7.79,2.07-11.39,11.53,4.95,22.9,10.3,34.79,14.38Z"/>
      <path class="cls-64" d="M366.07,229.53c4.83-2.33,2.52-6.9,3.29-10.5,9.64,2.48,15.55,8.86,18.91,17.98,2.09,5.66,4.12,11.32,5.28,17.26-2.36,2.42-4.72,4.84-7.09,7.26-1.61-6.52-3.19-13.05-4.85-19.56-1.22-4.78-3.96-8.05-8.96-9.43-2.28-.63-4.82-1.1-6.59-3.02Z"/>
      <path class="cls-64" d="M398.6,305.51c2.87-3.09,5.73-6.18,8.6-9.27,3.39,11.65,6.78,23.31,10.17,34.96q-11.36.35-14.41-10.43c-1.44-5.09-2.9-10.18-4.36-15.26Z"/>
      <path class="cls-39" d="M485.35,342.18c-.03-.25-.06-.5-.08-.75,3.4-1.12,6.84-.61,10.27-.28,44.84.92,89.64-1.16,134.46-1.98,3.72-.9,7.55.2,11.27-.62,7.31-.35,14.62-.69,21.93-1.04.81,2.67-1.38,1.73-2.32,1.72-12.14-.15-24.26.79-36.36,1.29-44.22,1.82-88.44,2-132.68,1.8-2.16,0-4.33-.09-6.49-.14Z"/>
      <path class="cls-39" d="M572.19,307.48c-1.57,1.42-3.5.79-5.26.79-30.8.04-61.61-.22-92.4.19-8.44.11-16.9.89-25.38.83-1.61-.01-3.36.54-4.78-.77,4.22-.12,8.45-.23,12.67-.35,3.38-.89,6.88.2,10.27-.62,34.96-.93,69.92-.35,104.89-.07Z"/>
      <path class="cls-39" d="M292.44,698.33c2.08,4.42,1.08,9.14.61,13.55-1.14,10.72-.44,21.43-.71,32.14-.04,1.43.48,3.02-.9,4.16-.98-16.65-.52-33.26,1.01-49.86Z"/>
      <path class="cls-25" d="M423.26,331.37c2.42-2.66,4.85-5.32,7.27-7.98,1.53,2.69,3.6,6.83,1.99,8.35-1.92,1.8-6.15.99-9.26-.37Z"/>
      <path class="cls-39" d="M670.43,944.32c-1.05-.86-.27-1.35.37-1.88,2.5-2.07,5.4-3.91,3.31-7.99-.22-.43.88-1.55,1.84-3.11.32,2.99.17,5.75,3.81,3.57,1.22-.73,3.17-.23,4.79-.29-4.36,3.73-9.23,6.72-14.11,9.69Z"/>
      <path class="cls-39" d="M641.28,338.55c-3.68,1.55-7.49.86-11.27.62,3.71-.98,7.5-.7,11.27-.62Z"/>
      <path class="cls-39" d="M495.55,341.15c-3.42.09-6.85.18-10.27.27-.01-.3-.03-.61-.04-.91,3.46-.15,6.91-.14,10.31.63Z"/>
      <path class="cls-73" d="M365.42,371.17c-2.35-13.67-9.17-25.72-14.43-39,6.37.11,11.81,2.33,17.47,3.19,12.27,1.87,24.5,3.92,36.75,5.9-.12.12-.22.27-.36.34-.13.07-.31.06-.47.09,5.5,8.1,5.22,17.93,7.98,26.86,10.19,32.95,18.74,66.37,27.77,99.64,8.07,29.74,15.57,59.64,23.25,89.49.68,2.64,1.95,5.47-.17,8.13-4.81,2.11-9.47.12-14.18-.54-1.82-.86-2.45-2.64-3.03-4.32-1.75-5.09-5.86-6.39-10.54-6.57-4.43-.17-6.84,2.69-8.49,6.38-.68,1.52-1.31,3.05-3.08,3.65-5.66,1.02-11.29.46-16.91-.33-1.72-.41-2.75-1.73-3.88-2.94-3.63-3.9-6.85-4.31-11.45-1.68-2.43,1.39-4.18,3.84-7.06,4.54-3.27-.15-6.7.61-9.63-1.6-1.29-2.95.19-5.58,1.17-8.16,9.01-23.74,16.47-48.03,19.42-73.22,3.13-26.71,6.68-53.58,2.12-80.57-2.19-12.98-4.93-25.84-8.74-38.45-.24-.8-.46-1.61-.89-2.33-.5-.85-.99-1.9-2.19-1.68-1.59.29-1.46,1.66-1.28,2.78.93,5.75,1.66,11.55,3.26,17.17,2.94,10.33,4.18,20.86,4.14,31.58-.03,8.33-.17,16.65.03,24.98.56,23.71-3.69,46.63-10.11,69.38-5.02,17.79-10.84,35.31-16.39,52.92-.66,2.08-1.55,4.04-2.88,5.78-1.89,2.39-4.7,1.96-7.26,2.43-4.47.82-9.43.75-11.83,5.81-16.84,42.91-30.91,86.57-36.42,132.59-2.62,21.88-.52,43.54,2.89,65.13,5.7,36.14,18.55,69.46,40.44,98.93,17.52,23.59,38.54,43.49,63.59,59.2,30.39,19.05,63.15,31.43,98.63,36.28,31.85,4.35,63.12,1.23,93.66-8.89,4.74-1.57,9.47-3.19,14.23-4.69,23.25-8.38,44.35-20.59,63.75-35.82,3.93-3.08,7.97-6.03,11.56-9.54,22.25-20.66,39.54-44.94,52.85-72.14,11.62-23.74,18.53-48.77,21.07-75.1.94-9.79,1.76-19.65,1.62-29.37-.28-19.12-2.29-38.16-5.73-57.05-5.24-28.77-15.85-55.67-27.3-82.33-1.45-3.37-2.88-6.74-3.92-10.26-.19-.77-.22-1.55-.13-2.34,2.57-6.17-1.36-11.16-3.06-16.54-.6-1.89-1.84-3.54-2.36-5.45-.4-1.44-1.46-3.27,1.09-4,12.4,29.57,26.05,58.65,35.4,89.43,2.25,7.4,4,14.95,5.98,22.42,6,28.93,8.94,58.08,6.79,87.66-2.09,28.69-10.76,55.54-21.89,81.84-16.61,39.24-43.03,70.29-77.43,94.93-1.34.96-2.55,2.11-3.82,3.17,0,0,.15.2.15.2-3.7,2.84-7.2,6-11.84,7.31-22.26,13.22-45.48,24.13-70.8,30.24-46.56,11.24-91.93,8.04-136.49-9.72-36-14.35-67.42-35.16-93.83-63.52-33.83-36.34-53.04-79.65-60.68-128.34-6.81-43.43-.98-85.87,10.69-127.78,9.43-34.36,23.68-66.96,36.56-100.06,10.02-25.76,18.68-51.99,22.03-79.53,3.54-29.08,3.21-58.08-5.34-86.49Z"/>
      <path class="cls-71" d="M529.15,1077.06c-1.47,9.01-.78,18.19-2.76,27.2-4.88,22.13-15,40.35-35.86,51.26-6.16,3.22-6.16,8.26-.08,12.15,6.59,4.21,14.14,5.73,21.77,6.59,21.14,2.37,42.18.93,63.2-1.75,2.09-.27,5.78-1.79,6.21.53.49,2.61-3.45,3.07-5.64,3.55-34.76,7.58-69.68,14.49-105.42,14.3-17.91-.09-35.88-1.76-53.09-7.63-5.76-1.97-11.02-4.68-14.49-9.99-2.78-4.26-2.48-5.99,2.08-8.22,9.65-4.73,20.17-6.53,30.57-8.78,12.15-2.63,24.42-4.56,36.46-7.92,23.21-6.49,36.03-22.72,41.96-44.64,10.59-39.13,4.29-75.77-18.89-109.24-3.8-5.48-8.45-10.27-13.47-14.69-1.59-1.4-3.42-2.66-4.41-5.89,42.37,14.27,84.2,13.76,126.46-.07-19.38,16.78-32.54,37.55-40.3,62.39-2.78-2.42-1.78-3.99-1.44-5.48,1.56-6.97,3.69-13.79,4.68-20.9,1.08-7.77-2.36-11.85-10.13-11.39-13.92.83-24.71,10.77-27.07,24.93.57,17.62.24,35.25.19,52.87,0,.28-.33.56-.52.84Z"/>
      <path class="cls-62" d="M617.45,1154.67c-.64,3.35-2.99,3.57-5.66,3.66-19.89.72-33.95-8.94-45.21-24.45-9.95-13.69-12.63-29.45-14.16-45.55-1.12-11.72-1.07-23.51,1.04-35.18,2.87,2.76,3.78,5.34,3.54,13.43-.49,16.43,1.41,32.58,6.22,48.22,5.85,19.03,18.23,32.12,37.59,37.96,5.36,1.62,11.26-.36,16.64,1.91Z"/>
      <path class="cls-62" d="M698.17,1179.02c-10.95,7.66-23.5,11.3-36.25,14.4-31.45,7.65-63.46,10.71-95.73,11.58-3.42-.41-6.82-.91-10.29-.49-1.71.21-3.72.88-4.73-1.44,7.79-1.78,15.78-1.05,23.66-1.67,41.09-3.2,81.74-8.55,120.79-22.57.9-.32,1.79-1.08,2.55.18Z"/>
      <path class="cls-62" d="M631.57,1187.69c-18.43,5.18-37.18,7.97-56.3,8.06-.12-.85-.24-1.71-.36-2.56,18.78-2.93,37.52-6.14,56.41-8.28.08.93.16,1.85.24,2.78Z"/>
      <path class="cls-62" d="M551.17,1203.07c3.68,2.24,7.67-.64,11.5.72,1.13.4,2.54.16,3.51,1.21-24.93.53-49.84.4-74.74-1.06,9.91-1.69,19.88-.35,29.82-.54,9.97-.19,19.94-.23,29.91-.33Z"/>
      <path class="cls-71" d="M529.15,1077.06c.11-17.9.22-35.81.33-53.71.26.76.73,1.53.73,2.29.04,20.07.03,40.15-.66,60.26-.14-2.95-.27-5.89-.41-8.84Z"/>
      <path class="cls-39" d="M663.28,936.37c3.95-2.43,7.89-4.87,11.84-7.31-3.37,3.37-6.12,7.75-11.84,7.31Z"/>
      <path class="cls-73" d="M452.14,344.47c7.42-1.07,14.74,1.4,22.15.64,6.45-.56,12.88-.2,19.32.19,20.36,1.21,40.74.25,61.11.55,1.81.03,3.65-.28,5.43.3,23.62.59,47.2-.91,70.8-1.57,10.14-.28,20.27-.64,30.4-.96,1.55,1.18,2.12,2.94,2.67,4.68,10.22,32.27,19.62,64.78,30.07,96.98.51,1.57.94,3.19.98,4.87-.07,3.67.91,7.56-4.26,9.22-2.32.75-1.6,3.7-1.32,5.84,1.56,12.19,3.58,24.32,6.45,36.26,4.8,20.03,10.86,39.68,18.11,58.97,1.29,3.45,4.39,6.22,3.97,10.32-.69.6-1.52.84-2.38,1.06-9.08.36-18.16.57-27.23-.12-.81-.08-1.66-.21-2.34-.65-5.97-3.82-11.79-4.68-17.42.67-.46.44-1.2.5-1.85.61-17.71-1.66-34.95-5.74-52.16-10-1.23-.61-2.01-1.68-2.84-2.73-4.73-6.02-11.57-6.59-17.13-1.44-.98.91-1.92,1.85-3.23,2.28-20.4,1.16-40.29,6.23-60.56,8.07-10.12.92-20.45-.55-30.42-3.23-2.22-1.38-2.6-3.74-3.16-6-10.45-41.86-22.05-83.41-33.06-125.12-7.01-26.57-13.92-53.18-20.4-79.89-2.47-10.17-2.42-10.26,8.3-9.79Z"/>
      <path class="cls-68" d="M718.25,570.06c-4-1.91-4.4-6.12-5.73-9.54-7.74-19.97-14.01-40.42-18.7-61.31-2.71-12.09-4.38-24.41-6.52-36.62-.44-2.5.89-5.08,2.76-5.29,4.32-.48,4.08-2.68,3.31-5.69-.09-.34.45-.83.7-1.25,3.34,3.12,4.1,7.52,5.36,11.53,4.34,13.89,8.45,27.85,13.92,41.36,2.19,2.23,1.47,5.54,2.95,8.03,4.12,12.86,8.7,25.55,13.64,38.12-1.53,1.71,0,3.07.57,4.49,1.94,4.7,3.97,9.37,5.94,14.06,1.14,2.7-.02,5.04-1.28,7.34-4.71-2.4-9.63-3.94-14.99-3.86-.8.01-1.53-.58-1.93-1.38Z"/>
      <path class="cls-63" d="M720.07,350.28c-3.95,13.67-7.89,27.33-11.84,41-.65,3.02-2.73,3.29-5.25,2.73-3.71-.82-7.47-1.43-11.16-2.29-3.62-.84-6.88-.89-9.78,1.75-3.91-5.24-5.77-11.11-5.47-17.65,2.08-1.42,3.6-3.2,4.37-5.72,2.42-7.92,6.4-15.3,8.25-23.42.42-1.85,1.31-3.38,2.95-4.42,2.58-1.33,5.35-.82,8.06-.88,1.8,1.92.47,3.74-.22,5.54-3.16,8.24-7.03,16.18-10.35,24.36-.52,1.29-2.07,2.87-.8,4.06,1.3,1.22,3.27.33,4.69-.43,5.24-2.8,8.64-7.69,12.73-11.76,3.43-3.41,5.55-7.91,8.81-11.47,1.19-1.3,2.42-4.29,5-1.4Z"/>
      <path class="cls-46" d="M676.82,375.35c1.6,6.06,3.19,12.12,5.55,17.95,2.42,1.68,2.85,4.43,3.57,6.94,5.25,18.38,11.85,36.34,16.88,54.78.57,2.09.74,4.24,1.15,6.35,2.7,12.88,4.82,25.9,8.85,38.48.35,1.08.37,2.27.54,3.41-5.47-8.77-8.47-18.52-11.44-28.3-2.5-8.23-5.22-16.39-7.84-24.59-10.75-34.62-21.5-69.24-32.23-103.86-.29-.92-.33-1.92-.49-2.89,1.94.04,3.88.07,5.82.11,5.29,9.91,8.64,20.41,9.65,31.62Z"/>
      <path class="cls-11" d="M703.97,461.37c-8.02-22.43-14.84-45.24-21.6-68.07.07-4.53,2.99-4.34,6.16-3.71,5.16,1.03,10.46,1.66,15.42,3.3,2.54.85,2.79-1.38,4.28-1.61-1.67,9.1-3.14,18.22-4.06,27.43-1.29,12.9-1.4,25.79-.12,38.69.13,1.31-.04,2.65-.07,3.97Z"/>
      <path class="cls-6" d="M720.07,350.28c-1.66-.96-2.32.24-3.15,1.35-3.18,4.24-6.27,8.57-9.7,12.61-3.09,3.64-6.39,7.14-9.95,10.31-3.12,2.78-7.05,3.44-11.58,2.38,4.37-10.26,8.65-20.31,12.94-30.36.72-1.67,1.77-3.23,1.58-5.18,7.44-1.26,14.87-2.62,22.33-3.72,2.78-.41,1.69,2.12,1.39,3.03-1.07,3.26-2.54,6.4-3.85,9.58Z"/>
      <path class="cls-66" d="M676.82,375.35c-3.22-10.54-6.43-21.08-9.65-31.62,8.32-.49,16.64-.97,24.96-1.46-2.89,10.73-7.19,20.97-11.07,31.36-.71,1.9-1.47,4.53-4.25,1.72Z"/>
      <path class="cls-39" d="M560.16,346.15c-28.63.52-57.26.73-85.86-1.04,0-.23,0-.47-.02-.7,27.69,1.17,55.4.88,83.1.94,1,0,2,.03,2.78.8Z"/>
      <path class="cls-72" d="M463.25,565.6c-1.93-12.66-5.81-24.84-9.07-37.17-10.93-41.39-21.74-82.81-32.99-124.11-5.1-18.72-11.29-37.14-15.26-56.18-.52-2.48-.49-6-4.5-6.48,1.26-.13,2.53-.26,3.79-.39,1.72.39,3.75-.64,5.18,1.11,2.01,1.53,2.42,3.86,3.07,6.09,4.18,14.52,7.47,29.28,11.98,43.7,3.99,13.9,7.55,27.92,11.05,41.96,3.97,13.83,8.26,27.58,11.52,41.61,4.28,13.39,7.51,27.08,11.36,40.59,3.4,14.07,7.36,28,11.09,41.99,1.54,7.08,3.79,13.99,5.24,21.1.42,2.07,1.2,4.18-.24,6.19-5.58,2.06-7.96,1.2-9.22-4.14-1.23-5.23-3.53-10.29-3-15.86Z"/>
      <path class="cls-23" d="M452.14,344.47c-.77.24-1.53.64-2.32.7-6.52.46-6.51.44-4.81,7.09,8.15,32.01,15.85,64.14,24.56,96,9.98,36.51,19.79,73.06,29.05,109.75.57,2.24,1.26,4.45,1.9,6.67,4.28,5.34,4.4,11.99,5.62,18.26.36,1.84-.92,3.15-2.82,3.48-2.14.37-3.97-.13-5.11-2.17-1.16-2.07-1.31-4.45-2.03-6.65-3.23-12.56-6.88-25.02-9.48-37.74-4.46-14.34-7.82-28.97-11.57-43.49-3.22-13.79-7.81-27.21-11-41.01-3.45-14.04-7.31-27.97-10.97-41.96-4.01-13.95-7.53-28.04-11.03-42.13-1.19-7.2-3.75-14.06-5.28-21.17-.48-2.22-1.47-4.5.32-6.62.94,0,1.88-.02,2.82-.02,4.05,1.03,8.25-.34,12.29.77l-.13.22Z"/>
      <path class="cls-24" d="M437.17,343.49c2.16,9.34,4.33,18.68,6.49,28.02-3.12,5.01-5.55,10.7-12.22,12.16-1.9-1.11-2.39-3.06-2.93-4.96-2.65-9.36-4.91-18.81-7.24-28.25-.56-2.28-1.76-4.76.18-7.05,5.24.03,10.48.05,15.72.08Z"/>
      <path class="cls-74" d="M421.45,343.41c2.95,12.03,5.9,24.06,8.85,36.09.36,1.46.69,2.92,2.06,3.83.28.42.36.87.25,1.37-2.37,3.13-3.56,7.52-8.48,7.92-4.35-11.32-6.36-23.3-9.78-34.88-1.5-5.07-2.64-10.24-3.95-15.37,3.7.15,7.5-.71,11.05,1.04Z"/>
      <path class="cls-35" d="M452.28,344.25c-4.12.18-8.24.28-12.29-.77,4.11,0,8.29-1.05,12.29.77Z"/>
      <path class="cls-43" d="M497.19,576.96c1.54,1.53,1.61,3.73,1.77,5.55.32,3.55,2.65,2.81,4.61,2.64,3.19-.27,1.28-2.32.98-3.63-1.29-5.63-2.67-11.23-4.03-16.84,5.76.54,11.57.76,17.27,1.68,13.61,2.18,26.58-1.73,39.78-3.6,11.46-1.62,22.86-4,34.54-3.62,1.17,1.25.6,2.82.77,4.25.57,4.83,3.7,8.7,7.54,9.29,5.12.79,9.27-1.68,11.3-6.71.67-1.65.81-3.58,2.5-4.69,12.49,2.49,24.97,5.03,37.47,7.44,5.2,1,10.44,1.75,15.67,2.61,1.01,2.05.2,4.24.47,6.36.71,5.51,5.8,9.63,11.14,8.92,5.66-.75,9.19-5.53,8.4-11.38-.22-1.6-1.05-3.19-.19-4.83,9.72.02,19.43.04,29.15.05,4.3,5.4,6.21,11.49,5.28,18.4-2.33,2.83-5.69,4-8.9,5.32-29.85,12.23-61.2,17.98-93.04,21.78-24.66,2.94-49.35,4.35-74.19,4.08-24.81-.27-49.49-1.38-74.08-5.11-25.04-3.79-49.9-8.26-74.33-15-16.95-4.68-33.08-11.24-47.8-20.99-3.09-2.24-8.42-2.64-7.07-8.55.3-4.19,3.57-5.18,6.76-5.89,4.11-.92,8.3-1.45,12.46-2.15,4.59-2.56,9.2-2.79,13.83-.1,3.38.21,6.77.42,10.15.62,1.66,1.55,1.22,3.65,1.48,5.57.78,5.68,4.61,9.39,9.28,8.95,6.33-.59,9.48-4.06,9.4-10.35-.02-1.45-.54-2.99.81-4.17,6.05.16,12.11.32,18.16.48,1.16.83,1.42,2.19,2,3.36,2.34,4.8,6.22,7.12,11.54,7.09,5.16-.03,7.76-3.03,9.01-7.66.22-.8.62-1.53,1.51-1.82,4.97-.49,9.74,1.33,14.67,1.3,2.54,4.22,3.16,9.08,3.94,13.73.88,5.23,3.3,6.99,8.25,5.92,2.84-2.37,6.2-1.41,9.4-1.51,3.08-.24,5.38-1.92,7.53-3.98,1.36-1.31,2.56-3.02,4.83-2.79Z"/>
      <path class="cls-45" d="M696.31,905.29c-17.66,16.14-37.6,28.83-59.27,38.83-5.09,2.35-10.04,5.14-15.64,6.23-2.57-.1-1.25-1.8-.96-2.74.57-1.85,1.89-3.12,3.93-3.51-11.86,3.24-23.73,6.16-36,7.2-14.11,1.19-28.15,1.84-42.36.83-18.06-1.28-35.66-4.72-52.92-9.7-29.31-8.47-56.71-21.26-81.91-38.6-4.55-3.13-8.26-7.24-12.43-10.82-2.65-2.27-5.03-4.77-8.27-6.34-1.37-.66-3.52-1.74-1.49-4.01,1.73-.41,3.32.17,4.86.77,16.66,6.48,34.25,8.17,51.79,10,20.84,2.17,41.72,4.21,62.64,4.75,23.6.61,47.22.82,70.85-.33,13.95-.68,27.88-1.54,41.82-2.36,16.63-.98,33.17-2.65,49.42-6.48,8.18-1.93,15.55-5.84,22.83-9.91,2.03-1.13,3.97-2.45,6.16-3.27.61-.23,1.25-.47,1.91-.5,1.96-.09,3.75-2.77,5.5-1.2,1.93,1.73-.14,3.99-.49,6.01-1.01,5.87-4.17,10.79-7.14,15.76-1.74,2.91-2.99,5.9-2.83,9.36Z"/>
      <path class="cls-60" d="M388.37,882.92c.12.31.16.8.37.9,8.71,4.05,14.16,12.17,21.83,17.45,14.46,9.96,29.46,18.84,45.74,25.79,16.47,7.03,33.01,13.77,50.52,17.31,13.06,2.64,26.1,5.38,39.6,6.22,20.02,1.25,39.71.09,59.3-3.55,6.96-1.3,14.02-2.62,20.65-5.36.78-.32,1.57-.5,2.26.23-1.22,3.84-7.94,2.95-7.25,8.43-19.84,7.92-40.31,13.11-61.64,15.04-51.21,4.64-98.16-8.5-141.83-34.42-35.92-21.32-64.15-50.42-84.43-87.03-15.86-28.61-23.56-59.61-27.44-91.91-4.43-36.86,1.46-72.46,11.08-107.79,6.85-25.14,14.92-49.85,25.06-73.87.08,4.63,4.5,4.84,7.07,6.93,2.43,3.25.48,6.33-.28,9.5-7.18,29.88-18.47,58.64-23.29,89.21-7.49,47.5-2.82,93.47,15.1,138.08,1.6,3.99,1.92,8.42,4.13,12.19,4.18,6.24,6.03,13.6,9.84,20.09,7.52,12.83,16.52,24.1,29.31,32.04,1.75,1.09,3.98,1.93,4.3,4.49Z"/>
      <path class="cls-38" d="M696.31,905.29c-2.11-2.36-1.63-4.58-.07-7.14,4.46-7.32,8.87-14.71,10.01-23.44-2.02-.47-2.49,3.59-4.99,1.69.14-2.54,2.26-3.54,3.87-4.91,15.15-12.92,25.69-28.67,29.77-48.4.39-1.9.54-4.03,2.66-5.08.61-.61,1.17,2.2,1.82.01,6.83-23.04,13.06-46.18,12.34-70.54-.16-5.34.97-10.62.91-15.95-.19-15.17-2.1-30.18-3.92-45.22-2.18-17.92-6.44-35.33-11.87-52.52-4.07-12.87-9.09-25.37-13.97-37.93-.89-2.3-2.23-4.53-1.32-7.17.35-1.78,1.58-2.87,3.15-3.46,4.37-1.66,7.91-4.36,10.7-8.09,9.06,21.32,18.44,42.49,25.02,64.79,7.09,24.02,10.85,48.54,12,73.48,1.73,37.61-2.83,74.33-18.42,108.9-13.84,30.69-32.01,58.57-57.67,80.98Z"/>
      <path class="cls-22" d="M375.24,562.23c-4.61.03-9.22.07-13.83.1,4.73-13.05,9.25-26.17,13.07-39.53,4-14,8.7-27.81,11.48-42.13,2.3-11.87,4.43-23.78,4.34-35.96-.05-7.16-.18-14.33.02-21.49.49-17.18-.53-34.16-5.42-50.78-1.07-3.63-1.41-7.48-2.15-11.22-.46-2.31-1.34-4.84,1.91-5.73,3.11-.85,4.72,1.09,5.41,3.77,2.42,9.48,4.99,18.94,7.04,28.5,3.32,15.47,5.19,31.16,4.08,46.97-1.62,23.11-2.9,46.23-8.01,69.01-4.49,20.01-11.69,39.07-17.95,58.48Z"/>
      <path class="cls-75" d="M448.58,564.3c-1.07,8.27-4.1,11.34-11.03,11.19-7.72-.17-12.19-4.35-13.02-12.15,2.46-9.32,6.04-11.63,15.19-10.09,6.34,1.07,7.3,6.26,8.86,11.06Z"/>
      <path class="cls-36" d="M406.37,562.86c2.43,9.67.16,13.89-8.44,15.7-6.74,1.42-12.4-2.87-12.75-9.78-.1-1.97.14-3.95.22-5.92,1.36-1.89,3.11-3.29,5.13-4.48,6.77-4,9.74-3.2,15.84,4.48Z"/>
      <path class="cls-13" d="M735.38,577.14c.05,4.26-3,6.04-6.22,7.55-2.38,1.12-4.86,2.04-6.93,3.72-.39.24-.72.19-.98-.2-.87-6.14-3.31-11.84-4.93-17.76.64-.13,1.28-.27,1.92-.4,2.48.06,4.97.21,7.45.15,4.15-.09,7.33,1.51,9.47,5.09.07.62.14,1.23.21,1.85Z"/>
      <path class="cls-41" d="M412.09,514.71c0-4.93,2.73-7.57,7.78-7.54,4.48.03,7.57,3.3,7.56,8.03,0,4.6-3.21,7.97-7.67,8.07-4.3.09-7.67-3.68-7.67-8.56Z"/>
      <path class="cls-43" d="M487.37,380.42c2.29-7.5,8.93-9.83,16.62-5.52,13.45,7.52,26.8,15.22,40.18,22.85,2.88,1.64,5.78,3.25,8.63,4.94,5.2,3.08,6.32,7.21,3.51,12.59-1.51,2.89-3.8,4.91-6.66,6.45-16.62,8.97-33.19,18.04-49.81,27-5.99,3.23-9.59,1.54-12.49-5.61-.75-.84-.56-1.88-.56-2.86,0-18.99,0-37.99,0-56.98,0-.98-.2-2.02.58-2.85Z"/>
      <path class="cls-43" d="M613.29,397.72c7.46,0,14.73-.04,21.99.02,5.05.04,5.77,1.18,3.32,5.43-10.26,17.79-20.58,35.54-30.9,53.29-.91,1.57-1.85,3.16-3.04,4.51-.83.94-2.04,1.93-3.5.98-1.47-.96-.31-2,.03-3.03,4.72-14.26,9.42-28.53,14.26-43.2-6.78,0-13.3.05-19.82-.03-1.92-.02-4.42.8-5.53-1.19-1.03-1.85.54-3.78,1.56-5.42,10.83-17.46,21.69-34.91,32.59-52.33.89-1.42,1.42-4.19,3.69-3.15,2.6,1.2,1.27,3.6.47,5.62-4.87,12.29-9.7,24.59-14.55,36.89-.23.58-.42,1.16-.58,1.61Z"/>
      <path class="cls-43" d="M557.23,504.78c0-7.64.05-15.27-.02-22.91-.03-2.75.55-5.34,3.65-5.44,3.18-.1,4.5,2.22,4.49,5.34-.04,15.93-.09,31.87,0,47.8.02,2.77-1.44,4.39-3.63,4.36-2.57-.03-4.59-1.57-4.57-4.77.08-8.13.03-16.27.03-24.4h.05Z"/>
      <path class="cls-43" d="M578.1,503.8c0-4.82.09-9.64-.04-14.46-.07-2.58,1.14-4.53,3.41-4.69,2.48-.17,4.59,1.79,4.65,4.28.23,10.47.23,20.94.1,31.41-.03,2.44-1.88,4.05-4.33,3.78-2.28-.25-3.91-1.72-3.9-4.36.02-5.32,0-10.64,0-15.96.04,0,.07,0,.11,0Z"/>
      <path class="cls-27" d="M687.18,570.4c5.54,9.55-1.21,16.62-7.98,17.85-7.68,1.39-16.24-6.84-11.84-16.92,6.75-6.62,12.46-6.89,19.82-.93Z"/>
      <path class="cls-1" d="M614.22,561.28c-.29,4.85-1.5,9.32-6.25,11.66-3.62,1.78-7.73,3.01-11.26.28-4.53-3.49-6.59-8.23-4.59-14.07,7.01-9.44,17.39-8.44,22.11,2.13Z"/>
      <path class="cls-43" d="M543.73,503.04c0,4.66.07,9.31-.03,13.97-.05,2.27-.52,4.42-3.55,4.38-2.94-.05-4.78-1.37-4.8-4.47-.04-8.98,0-17.96,0-26.94,0-2.92,1.53-5.09,4.3-5.13,2.99-.05,3.99,2.39,3.96,5.22-.05,4.32-.01,8.65-.01,12.97.05,0,.1,0,.14,0Z"/>
      <path class="cls-43" d="M644.19,495.69c.11-4.44,3.7-7.91,8-7.72,3.85.17,7.21,3.97,7.19,8.13-.02,4.31-3.34,7.97-7.26,8.01-4.36.04-8.04-3.86-7.93-8.42Z"/>
      <path class="cls-43" d="M656.7,459.27c-3.9-.06-7.45-3.57-7.29-7.21.18-4.19,3.77-7.76,7.64-7.58,3.85.18,6.84,3.96,6.97,8.82.08,2.82-3.85,6.03-7.31,5.97Z"/>
      <path class="cls-43" d="M515.25,503.17c0-.99-.01-1.98,0-2.97.03-2.58.97-4.67,3.8-4.86,3.12-.21,4.32,1.96,4.55,4.68.19,2.29.23,4.61.15,6.92-.09,2.58-1.07,4.48-4.12,4.4-3.09-.08-4.41-1.77-4.41-4.72,0-1.15,0-2.31,0-3.46h.04Z"/>
      <path class="cls-43" d="M607.27,508.46c-.15,1.36.74,3.77-1.38,5.3-1.67,1.2-3.46.98-5.01-.39-1.54-1.36-3.02-10.99-1.93-12.87.88-1.51,2.02-2.6,4.07-1.85,3.14,1.14,4.16,3.55,4.24,6.6.02.83,0,1.66,0,3.21Z"/>
      <path class="cls-43" d="M640.93,539.25c-.43,3.22-1.31,5.71-4.84,5.47-3.44-.23-4.97-2.55-5.08-5.68-.11-3.32,2.1-4.77,5.12-4.73,3.32.04,4.39,2.46,4.8,4.95Z"/>
      <path class="cls-43" d="M576.32,456.18c-2.68-.71-4.98-2.09-4.86-4.9.11-2.76,1.61-5.09,4.99-4.98,2.91.1,4.72,1.63,4.73,4.58,0,3.14-2.2,4.54-4.85,5.3Z"/>
      <path class="cls-34" d="M529.11,548.24c3.15.44,4.89,2.36,4.81,5.3-.07,2.53-1.95,4.54-4.48,4.36-2.74-.19-5.1-1.88-5.09-5.06.01-2.95,2.02-4.27,4.76-4.6Z"/>
      <path class="cls-43" d="M671.32,539.47c-2.69-.17-4.98-1.05-5.03-4.18-.05-2.9,1.84-4.79,4.56-4.7,2.75.1,5.2,1.7,5.1,4.91-.08,2.64-1.81,4.12-4.64,3.97Z"/>
      <path class="cls-12" d="M446.66,475.97c-3.85-13.79-7.71-27.59-11.56-41.38.1-5.86,4.08-8.46,8.77-10.48,2.78,1.92,2.9,5.14,3.6,7.94,2.72,10.79,5.34,21.61,8.4,32.31.13.49.16.99.12,1.5-1.84,4.54-4.73,8.12-9.34,10.11Z"/>
      <path class="cls-26" d="M446.66,475.97c2.79-3.21,5.59-6.41,8.38-9.62,1.87.88,2.36,2.71,2.84,4.43,3.01,10.8,5.36,21.77,8.46,32.55.41,1.44.39,2.94.17,4.42-1.65,4.14-4.33,7.28-8.64,8.82-3.74-13.53-7.48-27.07-11.22-40.6Z"/>
      <path class="cls-19" d="M443.38,424.48c-2.5,3.58-7.25,5.32-8.28,10.11-3.66-13.99-7.32-27.99-10.98-41.98,2.69-2.84,5.38-5.68,8.07-8.52,1.05.28,1.81,1,2.09,1.97,3.63,12.4,7.96,24.63,9.23,37.62-.04.27-.09.53-.14.8Z"/>
      <path class="cls-37" d="M457.88,516.57c2.49-2.75,4.98-5.49,7.48-8.24.52-.33.99-.26,1.4.2,3.81,12.99,6.72,26.23,10.89,39.13.38,1.32.05,2.54-.54,3.73-2.36,2.7-4.22,6.01-8.12,6.89-4.12-13.79-7.86-27.68-11.09-41.71Z"/>
      <path class="cls-16" d="M468.97,558.28c2.46-2.48,4.92-4.95,7.38-7.43,2.2.34,2.95,2.13,3.44,3.86,2.53,8.97,4.88,18,7.13,27.04.29,1.17.05,2.31-.35,3.43-3.71.02-7.43.05-11.14.07-2.15-8.99-4.3-17.98-6.46-26.97Z"/>
      <path class="cls-18" d="M455.34,465.39c-4.27-8.8-5.5-18.49-8.02-27.79-1.2-4.41-2.18-8.88-3.94-13.11,0,0-.28-.27-.28-.27,1.98-5.44,5.86-9.02,11.04-11.34,3.81,9.3,5.18,19.29,8.09,28.85,1.34,4.4,2.24,8.93,3.34,13.41-1.6,5.23-4.97,8.68-10.23,10.26Z"/>
      <path class="cls-47" d="M477.34,548.38c-.55-.32-1.48-.53-1.6-.96-3.23-11.92-6.4-23.87-9.51-35.82-.28-1.09-.09-2.31-.12-3.46,1.81-5.32,6.01-8.41,10.44-11.31,3.77,14,7.54,28,11.31,41.99-2.54,4.25-5.26,8.31-10.52,9.57Z"/>
      <path class="cls-42" d="M454.14,412.87c-3.68,3.78-7.36,7.56-11.04,11.34-3.24-12.29-6.48-24.57-9.74-36.85-.29-1.11-.77-2.17-1.16-3.25.06-.26.11-.51.16-.77,3.77-3.94,7.54-7.87,11.3-11.81,3.54,13.13,7.08,26.25,10.58,39.39.16.6-.06,1.31-.1,1.97Z"/>
      <path class="cls-2" d="M476.55,496.82c-3.48,3.77-6.96,7.54-10.44,11.31-.25.07-.51.13-.76.2-.76-9.85-4.83-18.92-6.67-28.53-.87-4.55-2.4-8.97-3.64-13.45.1-.32.2-.64.29-.96,3.78-3.05,7.02-6.64,10.23-10.26,3.4,13.97,8.25,27.55,10.97,41.69Z"/>
      <path class="cls-61" d="M477.34,548.38c3.91-2.75,6.39-7.07,10.52-9.57,2.95,11.59,5.87,23.2,8.91,34.77.3,1.15.55,2.21.41,3.37-3.48,2.81-5.81,7.12-10.62,8.21-2.4-8.86-4.84-17.71-7.17-26.59-.71-2.72-1.51-5.36-3.05-7.74.33-.83.66-1.65.99-2.47Z"/>
      <path class="cls-59" d="M721.26,588.22c.32.07.65.14.98.2,1.39,7.57,5.15,14.28,7.84,21.37,8.14,21.42,15.14,43.2,18.81,65.81,1.89,11.67,2.65,23.6,4.05,35.35,2.39,20.01.63,39.83-.96,59.61-1.29,15.98-6.01,31.47-10.81,46.79-.53,1.7-1.11,3.38-2.01,6.08-.77-2.35-1.24-3.76-1.7-5.16-1.66-1.45-1.25-3.39-.98-5.14,3.42-21.95,1.04-43.81-.73-65.7-2.29-28.22-5.86-56.29-9.28-84.39-1.38-11.34-5.49-20.57-17.25-24.55-5.19-1.76-10.52-1.91-15.81-1.07-25.68,4.07-51.55,6.33-77.45,8.29-8.78.67-17.57,1.48-26.42,1.37-11.64-.14-23.25,1.34-34.93.97-29.1-.93-58.17-2.24-87.2-4.67-27.22-2.29-54.32-5.53-81.4-9-17.16-2.2-28.19,5.98-30.37,23.12-2.93,22.95-5.31,45.98-7.86,68.98-2.69,24.32-5.5,48.61-5.78,73.12-.08,7.23,1.02,14.26,2.55,21.27.45,2.07,1.43,4.18-.14,6.22-1.68.94-1.63-.82-1.78-1.42-3.4-13.86-10.05-26.62-13.37-40.55-3.92-16.46-6.53-33.02-8.23-49.87-1.38-13.71-.16-27.25.59-40.76.79-14.16,3.95-28.19,7.17-42.07,3.9-16.76,9.11-33.13,14.52-49.46,2.75-8.3,4.01-17.09,5.94-25.65,12.97,7.81,26.49,14.37,41.01,18.88,20.15,6.27,40.8,10.32,61.52,14,17.6,3.12,35.3,5.65,53.13,7.02,18.91,1.45,37.87,1.01,56.82,1.08,21.1.08,42-2.19,62.9-4.82,19.24-2.42,38.47-5.05,57.07-10.5,13.48-3.95,27.08-7.95,39.55-14.76Z"/>
      <path class="cls-50" d="M527.71,604.37c-3.88.09-6.6-1.44-6.4-5.69.17-3.68,2.11-6.31,6.14-6.47,3.85-.15,7,2.76,6.77,6.39-.25,3.87-2.29,6.11-6.51,5.77Z"/>
      <path class="cls-15" d="M645,592.2c-2.03-.2-4.24-1.65-4.47-4.34-.2-2.32,1.68-4.11,4.16-3.96,2.55.16,5.19,1.2,5.14,4.26-.04,2.14-1.25,4.18-4.83,4.04Z"/>
      <path class="cls-32" d="M421.44,597.4c-3.71-.13-5.36-1.62-5.19-4.34.15-2.42,1.86-3.93,4.35-3.74,2.66.2,4.35,2.32,4.42,4.57.08,2.34-1.94,3.65-3.58,3.5Z"/>
      <path class="cls-4" d="M459.33,593.18c-.47,2.28-1.37,4.17-4.07,4.17-2.58,0-4.06-1.55-4.13-4.01-.06-2.31,1.56-3.75,3.72-3.91,2.42-.17,4.02,1.21,4.49,3.75Z"/>
      <path class="cls-30" d="M620.31,592.37c2.11.38,3.84,1.15,3.97,3.61.14,2.76-1.92,3.8-4,4.14-2.27.38-3.84-1.26-3.93-3.41-.1-2.44,1.81-3.63,3.96-4.34Z"/>
      <path class="cls-55" d="M587.52,596.11c-.28,2.38-1.45,3.99-3.99,4.11-2.36.12-3.89-1.37-3.98-3.48-.1-2.4,1.8-4.04,4-4.2,2.02-.15,3.66,1.2,3.96,3.57Z"/>
      <path class="cls-65" d="M488.35,604.41c-2.38.13-3.82-1.16-3.83-3.47,0-2.2,1.21-3.79,3.71-3.73,2.49.06,4.11,1.11,4.08,3.88-.03,2.62-1.56,3.43-3.96,3.32Z"/>
      <path class="cls-58" d="M557.12,585.43c-2.22.04-3.97-.64-3.96-3.21.01-2.28,1.28-3.83,3.62-3.68,2.23.15,4.27,1.22,4.35,3.8.08,2.58-1.8,3.18-4.01,3.09Z"/>
      <path class="cls-70" d="M344.42,827.09c-6.54-20.22-4.04-40.85-2.36-61.34,1.67-20.37,4.06-40.68,6.31-60.99,1.91-17.33,3.71-34.69,6.22-51.94,2.07-14.25,15.79-22.51,31.72-20.26,30.6,4.33,61.31,7.68,92.14,9.95,28.56,2.11,57.14,3.92,85.77,3.59,26.62-.3,53.19-1.93,79.71-4.56,16.86-1.68,33.66-3.66,50.44-5.99,11.41-1.58,21.46,1.26,28.69,11.03,3.41,4.6,4.35,10.04,5.02,15.45,2.72,21.91,5.55,43.81,7.77,65.77,2.2,21.83,4.23,43.72,4.09,65.69-.05,8.28-1,16.58-2.48,24.77-4,24.4-16.76,43.35-36.2,58.13-20.6,14.19-44.15,17.91-68.38,19.92-38.52,3.2-77.09,4.66-115.72,3.82-18.62-.41-37.18-1.86-55.73-3.62-15.38-1.46-30.76-2.8-46.01-5.3-9.41-1.54-18.26-4.77-27.04-8.3-22.18-12.68-35.18-32.59-43.95-55.83Z"/>
      <path class="cls-31" d="M645.03,923.22c-3.64-.14-5.38-2.49-5.44-5.4-.06-2.67,2.11-4.38,4.89-4.56,3.53-.23,4.45,2.35,4.71,5.1.28,2.97-1.41,4.53-4.16,4.86Z"/>
      <path class="cls-28" d="M442.41,564.2c.19,3.17-.75,5.74-4.29,6.01-4.27.33-6.64-2.17-7.71-6.11,4.02-2.34,8.02-2.27,12.01.09Z"/>
      <path class="cls-73" d="M442.41,564.2c-4-.03-8-.06-12.01-.09.68-3.71,3.06-5.34,6.66-5.06,3.05.24,5.46,1.47,5.35,5.15Z"/>
      <path class="cls-49" d="M396.69,562.39c2.93.77,5.27,3,5.07,6.47-.19,3.31-2.83,5.79-6.09,5.19-3.06-.56-5.71-3.03-5.23-6.75.39-3.03,2.15-5.2,6.25-4.91Z"/>
      <path class="cls-73" d="M499.17,383.59c16.02,9.13,32.05,18.26,48.79,27.8-16.47,9-32.63,17.84-48.79,26.67-1.76-.84-1.39-2.46-1.39-3.9-.02-15.56-.02-31.12,0-46.68,0-1.44-.39-3.06,1.38-3.9Z"/>
      <path class="cls-67" d="M683.42,578.15c-.17,2.61-2.36,4.39-5.77,4.3-3.63-.09-6.05-2.61-6.17-5.9-.16-4.27,3.44-4.58,6.75-4.51,3.28.07,5.41,1.4,5.2,6.11Z"/>
      <path class="cls-10" d="M602.37,559.25c3.04-.08,5.58.48,5.77,4.02.16,3.17-3.16,5.95-6.69,5.84-3.29-.1-4.11-2.37-4.22-5.04-.14-3.6,1.87-5.03,5.14-4.82Z"/>
      <path class="cls-53" d="M668.97,645.13c11.99-1.26,23.77-4.59,35.96-3.85,8.29.5,15.97,7.69,17.25,16.68,1.93,13.47,3.54,26.98,5.05,40.5,1.98,17.82,4.19,35.63,5.46,53.51,1.7,23.84,4.33,47.83-1.43,71.5-8.88,36.46-38.17,58.14-70.54,63.73-29.87,5.15-60.14,5.97-90.36,7.47-30.36,1.51-60.64.27-90.86-1.72-22.31-1.46-44.66-3.44-66.72-7.64-29.43-5.61-47.63-24.23-59.46-50.55-6.56-14.6-7.99-29.79-7.43-45.63,1.01-28.45,4.74-56.64,7.61-84.9,1.76-17.31,3.08-34.73,6.8-51.79,1.93-8.87,8.78-14.15,17.9-14.23,4.43-.04,8.97-.74,13.3.96,15.23,3.56,30.81,4.43,46.29,6.11,27.6,2.99,55.26,4.89,83,6.08,35.77,1.53,71.47,1.13,107.16-1.93,13.68-1.17,27.32-2.65,40.99-3.82.02,0,.02-.31.03-.48Z"/>
      <path class="cls-52" d="M668.97,645.13c.97.12,1.94.25,4.13.53-24.58,3.39-48.11,5.15-71.64,6.47-23.68,1.33-47.4,1.33-71.15.37-23.84-.97-47.65-2.28-71.4-4.32-23.54-2.01-47.05-4.38-70.32-8.4.65-1.04,1.98-.13,2.92-.62,12.38,1.45,24.77,2.79,37.13,4.37,21.11,2.69,42.32,4.11,63.53,5.65,26.23,1.91,52.52,2.27,78.82,2.16,23.48-.1,46.85-1.66,70.19-3.9,9.26-.89,18.53-1.55,27.8-2.32Z"/>
      <path class="cls-3" d="M726.1,764.31c2.14,13.76.91,27.53.35,41.32-.5,12.32-3.86,23.74-9.61,34.52-12.1,22.68-31.92,34.8-56.3,39.97-15.77,3.35-31.9,4.1-47.98,5.29-26.08,1.93-52.16,3.09-78.29,2.75-26.77-.35-53.48-1.72-80.11-4.77-14.66-1.68-29.37-2.65-43.81-5.98-15.73-3.63-28.19-12.05-37.87-24.76-9.45-12.4-16.43-26.09-18.55-41.64-1.57-11.54-1.03-23.28-.02-34.88.38-4.34-.84-8.91,1.41-13.05,6.73-.83,13.16,1.31,19.71,2.12,26.39,3.24,52.85,5.48,79.38,7.08,22.57,1.36,45.15,2.41,67.76,2.58,10.58.89,21.17.28,31.75.34,7.11.04,14.23.47,21.32-.32,18.12-.27,36.24-.57,54.33-1.68,29-1.78,58.06-3.05,86.77-8,3.19-.55,6.41-1.49,9.73-.9Z"/>
      <path class="cls-20" d="M366.38,759.21c-2.45-1.87-5.47-.84-8.2-1.49-2.64-.63-3.03-1.66-2.78-3.96,1.75-15.65,3.33-31.31,5.13-46.95,1.81-15.65,4.03-31.25,5.65-46.91.75-7.26,3.65-12.53,10.45-15.42,3.35-1.4,6.89-.95,10.23-.51,29.78,3.91,59.58,7.41,89.58,9.49,32.67,2.27,65.32,4.15,98.07,3.76,20.59-.25,41.12-1.77,61.63-3.59,20.01-1.78,39.94-4.14,59.86-6.69,3.69-.47,7.68-1.02,11.14,1.4,6.8,3.78,8.15,10.58,8.91,17.29,2.92,25.84,5.5,51.71,8.24,77.56.56,5.27,1.23,10.52,1.85,15.78-2.82,1.58-6.01,1.52-9.06,1.98-29.74,4.48-59.67,7.1-89.69,8.8-35.73,2.02-71.5,2.33-107.27,1.92-24.25-.28-48.47-1.6-72.67-3.3-25.53-1.79-50.93-4.56-76.27-8.03-1.64-.22-3.33-.2-4.8-1.13Z"/>
      <path class="cls-52" d="M366.38,759.21c12.2,1.41,24.42,2.64,36.59,4.26,16.5,2.19,33.08,3.59,49.68,4.58,32.41,1.94,64.86,3.45,97.34,3.1,30.81-.33,61.63-.76,92.37-3.03,20.2-1.49,40.4-3.09,60.48-5.88,7.77-1.08,15.54-2.19,23.32-3.28-3.28,3.26-7.75,2.63-11.68,3.15-19.34,2.58-38.71,4.91-58.2,6.31-16.36,1.18-32.72,2.21-49.11,2.97-31.44,1.46-62.87.51-94.3.83-23.75.24-47.42-1.72-71.08-3.27-17.12-1.12-34.25-2.99-51.29-5.44-8.16-1.17-16.41-1.97-24.57-3.3-.25-.04-1.96.87-.98-.79.16-.26.94-.16,1.44-.22Z"/>
      <path class="cls-52" d="M726.1,764.31c-17.16,3.11-34.43,5.55-51.81,6.83-22.9,1.68-45.84,2.82-68.77,3.91-9.97.47-19.97.24-29.95.33-14.56.82-29.13.18-43.7.33-3.29.03-6.62.46-9.89-.33-20.05.04-40.09-.39-60.1-1.92-12.02-.92-24.08-1.33-36.1-2.28-12.27-.97-24.52-2.23-36.76-3.67-11.26-1.33-22.48-2.82-33.69-4.43-.26-.75-.83-1.65.76-1.44,16.56,2.16,33.09,4.51,49.68,6.41,9.71,1.11,19.49,1.56,29.25,2.19,21.53,1.39,43.08,2.23,64.63,3.29,20.48,1.01,40.92.09,61.37.75,19.31.63,38.58-.78,57.86-1.23,20.86-.49,41.72-2.13,62.51-3.99,13.82-1.24,27.52-3.77,41.28-5.68,1.12-.16,2.28.03,3.43.08.08,0,.21.26.21.39,0,.15-.12.3-.19.45Z"/>
      <path class="cls-56" d="M707.15,648.34c-8.67-2.64-17.17.25-25.63,1.2-19.64,2.2-39.26,4.4-58.97,5.93-25.72,1.99-51.46,3.22-77.26,2.43-32.41-.98-64.79-2.68-97.06-5.82-21.08-2.05-42.18-4.25-63.12-7.64-2.75-.44-5.64,0-8.47.04,4.01-2.59,8.49-1.46,12.56-.88,13.26,1.9,26.62,2.9,39.87,4.76,16.89,2.37,33.9,3.19,50.85,4.78,10.22.96,20.47,1.54,30.72,2.1,26.41,1.43,52.86,1.6,79.26.8,15.99-.49,32.01-1.9,48-3.45,13.99-1.35,27.97-2.77,41.94-4.35,7.57-.86,15.06-2.42,22.73-1.97,2.63.15,2.64.09,4.57,2.08Z"/>
      <path class="cls-53" d="M521.97,775.38c17.86,0,35.72,0,53.59,0-13.55,1.61-27.15.64-40.73.65-4.29,0-8.57-.42-12.86-.66Z"/>
      <path class="cls-54" d="M452.33,804.93c-2.58.25-4.78-.02-6.98-.89.52-1.92,1.28-3.8,3.38-3.69,2.2.12,3.25,1.89,3.6,4.57Z"/>
      <path class="cls-20" d="M523.76,716.23c.53-3.64.28-7.6,2.29-11.3,2.66-4.9,6.61-7.33,12.03-7.17,5.44.16,8.75,3.22,10.4,8.35,2.45,7.6,2.53,14.94-2.29,21.7-3.26,4.57-8.52,6.46-13.5,5.13-4.92-1.31-7.81-5.06-8.44-10.99-.19-1.82-.31-3.64-.49-5.72Z"/>
      <path class="cls-20" d="M494.49,711.55c0,10.17-2.97,15.89-9.07,18.04-8.18,2.89-15.5-1.72-16.35-10.33-.46-4.65-.24-9.24,1.12-13.76,2-6.65,7.04-10.52,13-9.89,6.39.67,10.38,4.97,11.06,11.95.15,1.49.19,2.98.25,3.99Z"/>
      <path class="cls-57" d="M622.14,726.74c.6,4.82-1.75,7.11-5.72,7.39-3.13.22-5.34-1.35-5.22-5.06.12-3.82,3.28-6.12,8.46-6.38,4.16-.21,1.84,2.94,2.48,4.04Z"/>
      <g>
        <path class="cls-44" d="M404.71,676.8c4.49.64,8.98,1.25,13.47,1.82,2.4,8.65,4.85,17.29,7.33,25.92.91,3.43,1.66,7.12,2.57,10.69.11.01.23.03.34.04,1.32-3.31,2.48-6.78,3.78-9.96,3.39-7.95,6.74-15.92,10.06-23.9,4.5.47,9.01.9,13.51,1.31-.88,18.65-1.75,37.3-2.63,55.96-3.87-.35-7.74-.72-11.61-1.11.36-6.84.72-13.68,1.09-20.52.29-5.45,1.73-13.49,2.6-18.84-.11-.01-.23-.02-.34-.03-1.74,4.26-3.49,8.52-5.25,12.77-3.01,6.87-6.05,13.72-9.12,20.56-2.35-.27-4.7-.54-7.05-.82-2.21-7.45-4.38-14.91-6.53-22.38-1.18-4.59-2.36-9.19-3.52-13.79-.11-.01-.23-.03-.34-.04.22,5.48.67,13.73.3,19.18-.46,6.83-.93,13.66-1.39,20.49-3.8-.5-7.6-1.02-11.4-1.56,1.38-18.59,2.75-37.19,4.12-55.78Z"/>
        <path class="cls-44" d="M462.81,711.18c.81-18.3,11.37-27.89,26.14-27.05,14.77.83,24.73,11.66,24.46,29.92-.26,18.3-10.9,29.03-26.18,28.17-15.29-.87-25.24-12.76-24.42-31.04ZM500.49,713.55c.25-11.24-4.35-18.07-11.87-18.49-7.52-.43-12.51,5.86-12.92,17.09-.41,11.22,4.17,18.69,11.85,19.13,7.68.43,12.69-6.49,12.94-17.73Z"/>
        <path class="cls-44" d="M519.13,714.21c.28-18.33,10.55-28.5,25.34-28.49,14.79,0,25.05,10.27,25.32,28.53.27,18.3-10.04,29.62-25.34,29.61-15.3-.02-25.6-11.35-25.32-29.65ZM556.87,714.48c-.07-11.25-4.87-17.81-12.4-17.82-7.53,0-12.33,6.55-12.42,17.79-.09,11.95,4.71,19.04,12.4,19.05,7.7,0,12.5-7.08,12.42-19.03ZM538.22,742.38c4.33-.4,8.67-.82,12.99-1.27,2.16,5.25,8,7.15,13.4,7.04,2.47-.05,4.64-.51,6.31-1.11.8,3.06,1.6,6.12,2.4,9.18-2.1,1.11-5.66,2-10.08,2.08-12.55.21-21.2-6.66-25.02-15.92Z"/>
        <path class="cls-44" d="M579.03,726.75c-.1-5.75-.2-11.49-.3-17.24-1.93.06-3.86.12-5.78.17-.04-3.15-.09-6.29-.13-9.44,2.15-.22,4.3-.45,6.45-.68.42-3.79.84-7.59,1.25-11.38,3.42-.12,6.84-.26,10.26-.41.09,3.78.18,7.55.27,11.33,3.36-.15,6.73-.32,10.09-.51.1,3.31.19,6.61.29,9.92-3.38.19-6.76.36-10.14.51.14,5.69.27,11.39.41,17.08.12,4.83,2.37,6.68,5.71,6.51,1.41-.07,2.93-.56,4.05-1.02.75,3.02,1.51,6.04,2.27,9.06-2.26.85-5.35,1.85-9.52,2.05-10.66.49-15-6.07-15.16-15.95Z"/>
        <path class="cls-44" d="M604.56,729.27c-.27-9.01,6.73-14.18,23.4-17.3-.41-3.71-2.36-5.98-6.94-5.64-3.54.27-7.02,2.02-11.05,4.63-1.58-2.67-3.15-5.34-4.72-8.02,5.25-3.63,11.18-6.33,17.78-6.84,10.73-.84,16.98,4.78,17.63,17.84.4,8.12.8,16.23,1.2,24.35-3.46.33-6.92.64-10.38.93-.37-1.43-.74-2.86-1.11-4.29-.11,0-.21.02-.32.03-3.47,3.45-7.44,6.01-12.28,6.36-7.85.55-13.01-4.85-13.22-12.03ZM628.61,727.02c-.11-2.48-.21-4.96-.32-7.44-8.91,1.93-11.75,4.67-11.63,7.91.1,2.75,2.05,3.96,5.06,3.74,2.87-.22,4.74-1.78,6.89-4.2Z"/>
        <path class="cls-44" d="M646.45,682.16c-.2-3.87,2.65-6.9,6.78-7.35,4.12-.45,7.28,1.92,7.52,5.79.23,3.83-2.61,6.94-6.77,7.4-4.16.45-7.32-2-7.52-5.84ZM648.1,694.88c4.15-.43,8.29-.88,12.43-1.36.85,14.18,1.7,28.36,2.55,42.54-4.23.49-8.47.95-12.71,1.39-.76-14.19-1.52-28.38-2.28-42.57Z"/>
        <path class="cls-44" d="M671.21,721.77c-1.01-15.61-2.02-31.22-3.03-46.82,4.1-.51,8.2-1.04,12.29-1.61,1.12,15.77,2.24,31.53,3.37,47.3.19,2.7,1.5,3.38,2.53,3.24.48-.07.83-.12,1.53-.39.73,3.02,1.46,6.04,2.19,9.06-1.36.79-3.4,1.54-6.29,1.93-8.71,1.17-12.05-4.12-12.6-12.72Z"/>
      </g>
      <g>
        <path class="cls-44" d="M381.27,788.69c1.58.18,3.15.35,4.73.53,1.23,3.95,2.47,7.9,3.73,11.85.46,1.54.89,3.16,1.36,4.74.05,0,.1.01.14.02.57-1.47,1.08-2.99,1.65-4.42,1.49-3.65,2.99-7.31,4.5-10.98,1.57.16,3.14.32,4.71.48-.29,7.78-.55,15.57-.78,23.35-1.28-.13-2.56-.26-3.84-.4.1-3.56.22-7.12.34-10.68.07-2.16.51-5.23.79-7.37-.05,0-.1-.01-.14-.01-.7,1.74-1.4,3.49-2.09,5.23-1.41,3.36-2.82,6.72-4.23,10.07-.83-.09-1.66-.18-2.49-.27-1.19-3.63-2.37-7.27-3.54-10.9-.56-1.88-1.12-3.75-1.67-5.63-.05,0-.1-.01-.15-.02.12,2.18.33,5.32.25,7.47-.13,3.55-.25,7.11-.37,10.66-1.26-.14-2.52-.29-3.79-.43.26-7.76.56-15.53.89-23.29Z"/>
        <path class="cls-44" d="M405.23,809.92c.12-3.76,3.32-5.39,10.56-5.5,0-1.89-.71-3.54-3.09-3.76-1.75-.16-3.43.46-5.01,1.26-.48-.96-.96-1.93-1.43-2.89,1.98-1.02,4.51-1.87,7.3-1.61,4.4.41,6.46,3.3,6.33,8.2-.1,3.47-.2,6.93-.28,10.4-1.13-.1-2.26-.21-3.39-.31-.09-.66-.18-1.32-.26-1.97-.04,0-.08,0-.11-.01-1.61,1.2-3.45,2.06-5.54,1.86-3.09-.3-5.17-2.6-5.08-5.66ZM415.61,810.93c.04-1.32.07-2.63.11-3.95-4.79.16-6.43,1.24-6.48,3.01-.05,1.55,1,2.33,2.48,2.47,1.44.14,2.55-.46,3.89-1.54Z"/>
        <path class="cls-44" d="M422.84,807.51c.16-5.73,3.85-8.92,7.69-8.6,1.98.16,3.21,1.01,4.54,2.31-.03-.95-.05-1.9-.08-2.85.06-2.13.12-4.25.18-6.38,1.37.11,2.73.21,4.09.32-.24,8.44-.45,16.88-.64,25.32-1.13-.09-2.25-.18-3.37-.27-.09-.64-.18-1.29-.27-1.93-.04,0-.08,0-.11,0-1.33,1.2-3.16,2.08-5.05,1.92-4.38-.37-7.14-4.03-6.98-9.83ZM434.62,812.34c.06-2.73.13-5.46.21-8.2-1.17-1.17-2.34-1.65-3.53-1.75-2.23-.18-4.13,1.78-4.23,5.45-.1,3.82,1.31,5.97,3.84,6.18,1.36.11,2.51-.4,3.71-1.68Z"/>
        <path class="cls-44" d="M442,809.08c.14-5.72,4.17-8.95,8.27-8.67,4.72.32,7.11,3.93,7.01,8.85-.02.79-.12,1.57-.22,2-3.69-.24-7.39-.5-11.09-.77.27,3.15,2.23,5.08,5.05,5.27,1.5.1,2.79-.28,4.08-1,.45.89.89,1.77,1.34,2.66-1.68,1.02-3.81,1.65-6.03,1.5-4.83-.34-8.56-4.04-8.42-9.85ZM453.76,808.22c.06-2.71-1.1-4.44-3.48-4.61-2.03-.14-3.86,1.26-4.28,4.06,2.59.19,5.18.37,7.77.54Z"/>
        <path class="cls-44" d="M464.94,801.78c1.36.08,2.73.16,4.09.24.64,3.09,1.29,6.18,1.94,9.27.31,1.73.54,3.4.82,5.14.05,0,.09,0,.14,0,.37-1.71.74-3.38,1.19-5.03.81-3.01,1.63-6.02,2.45-9.03,1.23.06,2.46.13,3.69.19.72,3.09,1.44,6.18,2.16,9.27.4,1.73.71,3.4,1.07,5.15.05,0,.09,0,.14,0,.37-1.71.65-3.35,1.01-5.05.74-3.02,1.49-6.04,2.23-9.06,1.27.06,2.53.11,3.8.17-1.56,5.82-3.12,11.65-4.67,17.46-1.61-.08-3.23-.15-4.85-.23-.64-2.78-1.28-5.56-1.91-8.34-.34-1.67-.62-3.31-.96-5.18-.05,0-.1,0-.14,0-.37,1.83-.7,3.47-1.12,5.1-.7,2.7-1.41,5.4-2.11,8.1-1.57-.09-3.14-.17-4.71-.26-1.43-5.97-2.86-11.94-4.26-17.91Z"/>
        <path class="cls-44" d="M491.86,797.7c.02-1.4,1.11-2.3,2.55-2.24,1.44.06,2.49,1.05,2.47,2.44-.02,1.37-1.11,2.3-2.55,2.25-1.44-.06-2.49-1.08-2.47-2.45ZM492.24,803.16c1.36.06,2.71.11,4.07.16-.09,5.89-.17,11.78-.24,17.67-1.36-.05-2.72-.11-4.08-.16.08-5.89.16-11.78.26-17.66Z"/>
        <path class="cls-44" d="M501.05,815.21c.04-2.81.07-5.61.11-8.42-.82-.03-1.64-.06-2.47-.09.01-1.04.03-2.07.04-3.11.9-.03,1.79-.06,2.68-.09.18-1.6.36-3.2.55-4.8,1.13.04,2.25.08,3.37.11-.02,1.61-.04,3.21-.06,4.82,1.47.05,2.94.09,4.41.14-.01,1.1-.03,2.2-.04,3.3-1.47-.04-2.94-.09-4.42-.14-.04,2.8-.07,5.61-.1,8.41-.03,2.08.75,3.13,2.42,3.18.59.02,1.3-.16,1.81-.35.22,1.02.44,2.05.66,3.07-.95.29-2.16.58-3.55.54-4.01-.13-5.46-2.76-5.41-6.57Z"/>
        <path class="cls-44" d="M512.54,796.1c1.35.04,2.7.07,4.05.1-.03,2.19-.05,4.39-.07,6.58-.07,1.14-.14,2.27-.21,3.41,1.46-1.36,3.2-2.6,5.57-2.55,3.71.08,5.3,2.66,5.26,7.13-.03,3.7-.06,7.39-.1,11.09-1.35-.02-2.71-.05-4.07-.08.03-3.52.06-7.04.1-10.55.03-2.91-.78-4.02-2.65-4.06-1.52-.03-2.53.71-3.97,2.11-.04,4.12-.09,8.24-.13,12.35-1.36-.03-2.71-.07-4.07-.11.09-8.47.19-16.95.29-25.42Z"/>
        <path class="cls-44" d="M537.3,818.61c1.68.02,3.35.03,5.02.04.03-5.01.07-10.02.1-15.04-1.38,0-2.76-.02-4.14-.03,0-.87.01-1.74.02-2.61,2.22-.4,3.76-.98,5.18-1.85,1.01,0,2.01.01,3.02.01-.04,6.51-.07,13.02-.11,19.53,1.47,0,2.95,0,4.42,0,0,1.13-.01,2.26-.02,3.38-4.51,0-9.01-.03-13.51-.07,0-1.13.01-2.26.02-3.38Z"/>
        <path class="cls-44" d="M553.37,810.52c.03-7.74,3.01-11.79,7.65-11.82,4.64-.03,7.59,4.01,7.58,11.73-.02,7.74-3,12.02-7.66,12.05-4.66.03-7.61-4.21-7.57-11.95ZM564.72,810.46c.02-6.48-1.54-8.53-3.71-8.51-2.17.01-3.73,2.08-3.76,8.56-.03,6.48,1.53,8.72,3.7,8.71,2.18-.01,3.75-2.28,3.77-8.76Z"/>
        <path class="cls-44" d="M570.58,810.4c.01-7.74,2.97-11.83,7.62-11.91,4.65-.09,7.62,3.92,7.63,11.63,0,7.74-2.97,12.05-7.64,12.14-4.67.09-7.62-4.12-7.61-11.86ZM581.94,810.2c0-6.48-1.57-8.5-3.74-8.46-2.17.04-3.73,2.12-3.74,8.6,0,6.48,1.56,8.7,3.73,8.66,2.18-.04,3.75-2.32,3.75-8.8Z"/>
        <path class="cls-44" d="M587.43,805.07c0-4.71,2.24-7.47,5.48-7.56,3.24-.09,5.51,2.54,5.53,7.25.02,4.73-2.24,7.56-5.49,7.65-3.25.09-5.52-2.6-5.52-7.34ZM595.52,804.85c0-3.54-1.12-4.97-2.6-4.93-1.48.04-2.58,1.54-2.57,5.08,0,3.54,1.11,5.05,2.6,5.01,1.48-.04,2.58-1.62,2.57-5.16ZM606.24,797.08c.83-.03,1.66-.06,2.49-.1-4.15,8.29-8.32,16.56-12.53,24.83-.83.03-1.67.05-2.49.08,4.21-8.25,8.39-16.52,12.54-24.81ZM604.04,814.06c-.02-4.71,2.23-7.49,5.49-7.62,3.26-.13,5.54,2.47,5.57,7.17.02,4.73-2.24,7.58-5.51,7.71-3.26.13-5.54-2.53-5.55-7.27ZM612.16,813.75c-.01-3.54-1.13-4.96-2.62-4.9-1.49.06-2.58,1.57-2.57,5.11.01,3.54,1.12,5.03,2.61,4.97,1.49-.06,2.59-1.64,2.58-5.18Z"/>
        <path class="cls-44" d="M623.18,808.44c-.06-7.6,4.07-12.28,10.12-12.62,6.04-.33,10.31,3.9,10.4,11.47.09,7.59-4.1,12.53-10.17,12.87-6.07.34-10.29-4.12-10.34-11.72ZM639.45,807.55c-.06-5.27-2.46-8.31-6.11-8.11-3.65.2-5.97,3.51-5.93,8.78.04,5.49,2.42,8.73,6.09,8.52,3.66-.21,6.01-3.71,5.95-9.2ZM631.43,819.72c1.41-.21,2.82-.42,4.23-.63.93,2.29,3.28,3.17,5.76,3.01,1.03-.06,1.87-.28,2.53-.53.26,1.02.52,2.03.78,3.05-.78.41-2.13.8-3.74.9-4.82.3-8.11-2.23-9.56-5.8Z"/>
        <path class="cls-44" d="M647.4,808.59c-.05-4.39-.11-8.78-.18-13.17,1.37-.09,2.75-.18,4.13-.27.07,4.49.14,8.99.19,13.48.06,5.11,1.97,6.65,4.81,6.45,2.86-.21,4.83-2.03,4.75-7.13-.06-4.49-.14-8.98-.22-13.47,1.33-.1,2.66-.2,3.99-.3.08,4.38.16,8.77.23,13.15.12,7.69-3.28,10.97-8.71,11.36-5.43.39-8.91-2.4-9-10.1Z"/>
        <path class="cls-44" d="M669.82,793.8c1.38-.11,2.77-.22,4.15-.33.16,7.8.3,15.6.41,23.4-1.39.12-2.78.23-4.17.34-.1-7.8-.23-15.61-.39-23.41Z"/>
        <path class="cls-44" d="M678.03,804.92c-.14-7.66,4.55-12.6,10.51-13.15,2.95-.27,5.33.91,6.86,2.32-.72.96-1.45,1.92-2.17,2.88-1.24-1.09-2.68-1.78-4.52-1.61-3.83.35-6.5,3.8-6.4,9.05.1,5.33,2.69,8.34,6.65,7.98,2.09-.2,3.7-1.31,5-2.88.76.79,1.53,1.59,2.29,2.38-1.88,2.38-4.33,3.82-7.39,4.11-5.95.56-10.69-3.35-10.83-11.09Z"/>
        <path class="cls-44" d="M698.61,812.3c-.03-1.61,1.12-2.91,2.64-3.07,1.52-.15,2.73.91,2.76,2.52.03,1.58-1.12,2.89-2.65,3.04-1.53.15-2.72-.91-2.75-2.5Z"/>
      </g>
      <g>
        <path class="cls-44" d="M378.19,838.64c3.34-4.26,6.67-8.53,10-12.82-2.75-.3-5.5-.6-8.26-.91.06-.92.13-1.85.19-2.77,4.13.46,8.25.91,12.35,1.34-.04.66-.08,1.32-.13,1.98-3.32,4.3-6.64,8.58-9.97,12.85,3.08.34,6.15.68,9.22,1-.05.93-.1,1.85-.16,2.78-4.45-.47-8.91-.97-13.38-1.48.04-.66.08-1.32.12-1.98Z"/>
        <path class="cls-44" d="M392.89,835.23c.27-4.54,3.62-7,6.93-6.67,3.8.38,5.64,3.31,5.43,7.22-.04.63-.14,1.25-.23,1.58-2.98-.29-5.96-.59-8.95-.9.14,2.51,1.67,4.09,3.95,4.32,1.21.12,2.26-.15,3.33-.69.34.72.68,1.43,1.02,2.15-1.39.77-3.13,1.21-4.92,1.03-3.9-.4-6.83-3.43-6.56-8.04ZM402.44,834.86c.12-2.15-.77-3.56-2.7-3.75-1.64-.17-3.16.9-3.57,3.12,2.09.22,4.18.43,6.27.63Z"/>
        <path class="cls-44" d="M408.04,829.71c.9.09,1.8.17,2.7.25.04.84.08,1.68.12,2.52.03,0,.06,0,.09,0,1.1-1.73,2.64-2.61,4.13-2.47.71.06,1.16.2,1.57.43-.24.93-.48,1.87-.72,2.8-.48-.18-.85-.31-1.43-.36-1.12-.1-2.51.54-3.46,2.59-.15,2.85-.29,5.69-.43,8.54-1.1-.1-2.2-.21-3.31-.32.23-4.67.47-9.33.73-14Z"/>
        <path class="cls-44" d="M416.41,837.53c.23-4.67,3.54-7.08,7.02-6.78,3.48.3,6.51,3.25,6.31,7.92-.2,4.65-3.48,7.09-6.99,6.79-3.5-.3-6.57-3.29-6.34-7.93ZM426.36,838.4c.13-2.81-1.01-4.79-3.06-4.96-2.05-.18-3.37,1.59-3.51,4.4-.13,2.81,1.02,4.77,3.08,4.95,2.06.18,3.37-1.57,3.5-4.38Z"/>
        <path class="cls-44" d="M436.95,842.66c.22-5.53.46-11.06.71-16.58,1.09.08,2.17.16,3.26.24-.25,5.59-.48,11.17-.69,16.76-.03.81.32,1.13.66,1.15.15.01.26.02.51-.02.11.83.21,1.66.32,2.49-.4.13-.96.22-1.74.16-2.32-.18-3.12-1.75-3.02-4.2Z"/>
        <path class="cls-44" d="M443.2,842.97c.11-3.01,2.65-4.39,8.39-4.62,0-1.52-.54-2.82-2.42-2.94-1.38-.1-2.71.44-3.96,1.11-.37-.76-.74-1.52-1.11-2.28,1.57-.86,3.57-1.59,5.78-1.44,3.47.24,5.1,2.51,4.96,6.43-.1,2.78-.19,5.55-.28,8.33-.89-.06-1.79-.12-2.68-.18-.07-.53-.13-1.05-.2-1.58-.03,0-.06,0-.09,0-1.29.99-2.75,1.72-4.4,1.6-2.45-.17-4.07-1.97-3.98-4.42ZM451.4,843.56c.04-1.05.07-2.11.11-3.16-3.79.22-5.09,1.13-5.14,2.55-.04,1.24.78,1.85,1.95,1.93,1.14.08,2.02-.42,3.09-1.31Z"/>
        <path class="cls-44" d="M457.95,843.01c.07-2.23.15-4.47.23-6.7-.66-.04-1.32-.08-1.98-.13.03-.82.06-1.65.09-2.48.72,0,1.44,0,2.15-.01.18-1.27.35-2.54.52-3.82.9.06,1.8.11,2.69.16-.05,1.28-.09,2.56-.13,3.84,1.18.07,2.35.14,3.53.21-.03.87-.06,1.75-.08,2.62-1.18-.07-2.36-.14-3.54-.21-.08,2.23-.15,4.47-.22,6.7-.06,1.66.56,2.51,1.89,2.59.48.03,1.05-.1,1.46-.24.16.82.32,1.64.48,2.46-.77.21-1.75.41-2.86.35-3.21-.2-4.34-2.33-4.24-5.36Z"/>
        <path class="cls-44" d="M465.67,841.19c.14-4.57,3.36-7.21,6.61-7.04,3.74.2,5.63,3.05,5.52,6.98-.02.63-.1,1.26-.18,1.6-2.93-.15-5.87-.3-8.8-.47.19,2.52,1.74,4.03,3.98,4.15,1.19.06,2.21-.26,3.25-.85.35.7.7,1.41,1.05,2.11-1.35.84-3.04,1.37-4.8,1.28-3.84-.21-6.78-3.11-6.63-7.76ZM475.02,840.35c.06-2.17-.85-3.54-2.74-3.64-1.61-.09-3.07,1.06-3.42,3.3,2.05.11,4.11.23,6.16.33Z"/>
        <path class="cls-44" d="M480.39,834.91c.89.04,1.77.08,2.66.12.07.64.13,1.28.2,1.92.03,0,.06,0,.09,0,1.27-1.17,2.7-2.13,4.59-2.05,2.96.13,4.2,2.22,4.12,5.78-.07,2.95-.13,5.9-.19,8.84-1.08-.04-2.17-.09-3.25-.14.06-2.81.12-5.61.19-8.42.06-2.32-.58-3.22-2.07-3.28-1.22-.05-2.03.52-3.2,1.61-.08,3.28-.16,6.57-.24,9.85-1.08-.05-2.17-.1-3.26-.15.12-4.7.24-9.4.37-14.09Z"/>
        <path class="cls-44" d="M494.36,842.58c.11-4.7,3.41-7.28,7.08-7.16,1.75.06,3.02.79,4,1.72-.54.7-1.07,1.4-1.61,2.1-.72-.68-1.41-1.08-2.27-1.11-2.22-.07-3.8,1.75-3.86,4.58-.06,2.83,1.43,4.74,3.58,4.82,1.08.04,2.08-.47,2.88-1.12.43.74.85,1.48,1.28,2.22-1.32,1.13-2.97,1.64-4.55,1.59-3.78-.13-6.63-2.96-6.53-7.63Z"/>
        <path class="cls-44" d="M506.59,855.56c.21-.85.43-1.7.64-2.55.26.09.66.21.99.22,1.46.04,2.32-.95,2.8-2.35.09-.29.18-.59.27-.88-1.74-4.7-3.48-9.39-5.2-14.1,1.09.03,2.18.07,3.28.1.75,2.33,1.51,4.66,2.27,6.98.4,1.26.77,2.67,1.16,4.02.04,0,.07,0,.11,0,.37-1.3.74-2.68,1.12-3.96.72-2.29,1.44-4.58,2.16-6.87,1.04.02,2.08.05,3.12.07-1.73,4.89-3.46,9.77-5.2,14.65-1.2,3.15-2.68,5.08-5.7,5-.76-.02-1.3-.15-1.8-.34Z"/>
        <path class="cls-44" d="M519.2,848.49c.02-1.3.94-2.23,2.12-2.21,1.18.02,2.08.99,2.07,2.29-.02,1.28-.94,2.21-2.12,2.19-1.18-.02-2.09-1-2.07-2.27Z"/>
        <path class="cls-44" d="M530.51,848.57c3.01-4.62,6.01-9.26,8.99-13.9-2.68-.02-5.36-.05-8.04-.08,0-.94.02-1.87.03-2.81,4.01.05,8.03.09,12.04.11,0,.67,0,1.33-.01,2-2.97,4.65-5.97,9.29-8.97,13.93,2.99.03,5.99.05,8.98.07,0,.94,0,1.87-.02,2.81-4.34-.02-8.68-.06-13.02-.12,0-.67.02-1.33.02-2Z"/>
        <path class="cls-44" d="M544.57,843.65c.02-4.59,3.14-7.4,6.38-7.41,3.72,0,5.68,2.74,5.68,6.69,0,.63-.07,1.27-.14,1.61-2.92.01-5.84.02-8.76.01.26,2.51,1.83,3.94,4.06,3.93,1.18,0,2.2-.38,3.21-1.03.37.68.73,1.37,1.1,2.05-1.32.91-2.99,1.54-4.75,1.54-3.81,0-6.8-2.75-6.78-7.4ZM553.83,842.29c0-2.17-.94-3.49-2.82-3.49-1.6,0-3.02,1.23-3.31,3.49,2.04,0,4.09,0,6.13,0Z"/>
        <path class="cls-44" d="M559.03,836.56c.88,0,1.76-.01,2.65-.02.08.84.17,1.68.25,2.52.03,0,.06,0,.09,0,.98-1.85,2.43-2.88,3.91-2.9.7,0,1.14.08,1.56.27-.18.96-.37,1.92-.55,2.88-.48-.13-.84-.22-1.42-.21-1.1.01-2.42.79-3.25,2.95,0,2.87,0,5.74,0,8.61-1.08,0-2.16.02-3.25.02,0-4.71,0-9.41,0-14.12Z"/>
        <path class="cls-44" d="M567.61,843.55c-.01-4.7,3.1-7.45,6.53-7.51,3.43-.06,6.58,2.59,6.61,7.29.03,4.68-3.09,7.46-6.54,7.52-3.45.06-6.59-2.62-6.6-7.3ZM577.42,843.4c-.01-2.83-1.24-4.69-3.26-4.66-2.03.03-3.23,1.94-3.22,4.76.01,2.83,1.23,4.67,3.26,4.64,2.03-.03,3.23-1.92,3.22-4.75Z"/>
        <path class="cls-44" d="M588.2,831.41c1.08-.03,2.17-.06,3.25-.09.03,2.52.06,5.03.09,7.55,2.48-.07,4.96-.15,7.44-.23-.03-2.51-.07-5.03-.1-7.55,1.09-.04,2.17-.07,3.26-.11.1,6.26.19,12.52.26,18.77-1.09.04-2.19.08-3.28.12-.03-2.78-.06-5.55-.1-8.33-2.49.08-4.97.16-7.45.23.03,2.78.06,5.55.08,8.33-1.09.03-2.18.06-3.27.09-.05-6.26-.11-12.52-.18-18.79Z"/>
        <path class="cls-44" d="M605.33,845.85c-.04-3.02,2.39-4.68,8.08-5.54-.07-1.51-.69-2.75-2.57-2.67-1.37.06-2.66.74-3.87,1.55-.41-.72-.82-1.44-1.23-2.16,1.51-1.03,3.45-1.98,5.65-2.08,3.46-.15,5.21,1.94,5.29,5.87.05,2.78.1,5.56.15,8.34-.89.04-1.78.08-2.68.12-.09-.52-.18-1.03-.27-1.55-.03,0-.06,0-.09,0-1.23,1.13-2.64,2.02-4.29,2.09-2.44.1-4.13-1.51-4.17-3.97ZM613.5,845.53c-.02-1.06-.03-2.11-.05-3.17-3.75.64-5,1.69-4.97,3.11.02,1.25.86,1.76,2.03,1.71,1.13-.05,1.99-.65,3-1.66Z"/>
        <path class="cls-44" d="M619.77,834.92c.89-.04,1.78-.09,2.67-.13.1.63.19,1.26.29,1.89.03,0,.06,0,.09,0,1.21-1.29,2.61-2.38,4.51-2.48,2.97-.16,4.33,1.81,4.42,5.36.07,2.94.14,5.88.2,8.82-1.09.06-2.19.12-3.27.18-.05-2.8-.12-5.6-.18-8.4-.05-2.32-.73-3.15-2.24-3.07-1.22.06-2.01.71-3.13,1.92.07,3.28.14,6.56.2,9.84-1.09.05-2.18.11-3.27.16-.08-4.69-.18-9.39-.27-14.09Z"/>
        <path class="cls-44" d="M634.34,850.8c-.03-1.19.68-2.26,1.95-3.12,0-.04,0-.08,0-.11-.73-.43-1.29-1.14-1.32-2.27-.03-1.09.69-2.09,1.48-2.71,0-.04,0-.08,0-.11-.97-.65-1.89-1.94-1.93-3.61-.08-3.23,2.45-5.2,5.36-5.38.77-.05,1.5.04,2.07.22,1.66-.1,3.32-.21,4.98-.32.03.82.05,1.63.08,2.45-.85.06-1.7.11-2.55.17.47.5.84,1.35.86,2.31.09,3.12-2.22,4.95-5.18,5.13-.59.04-1.26-.05-1.9-.26-.41.39-.66.76-.65,1.39.02.79.6,1.24,2.3,1.13.83-.05,1.66-.1,2.49-.15,3.35-.21,5.15.71,5.22,3.13.07,2.77-2.78,5.15-7.36,5.44-3.34.21-5.86-.85-5.91-3.32ZM644.45,849.43c-.02-1.09-.9-1.35-2.5-1.25-.64.04-1.28.08-1.92.12-.75.05-1.36.03-1.9-.08-.74.62-1.06,1.27-1.04,1.92.03,1.28,1.41,1.95,3.61,1.81,2.26-.14,3.78-1.31,3.75-2.52ZM642.45,838.38c-.05-1.76-1.14-2.7-2.5-2.62-1.36.08-2.39,1.14-2.34,2.92.05,1.79,1.15,2.76,2.49,2.68,1.34-.08,2.39-1.19,2.35-2.98Z"/>
        <path class="cls-44" d="M647.78,840.38c-.13-4.68,2.93-7.59,6.42-7.83,3.48-.24,6.75,2.22,6.91,6.89.16,4.65-2.95,7.59-6.45,7.84-3.51.25-6.75-2.24-6.88-6.9ZM657.73,839.68c-.09-2.81-1.39-4.6-3.44-4.45-2.05.14-3.21,2.1-3.13,4.92.09,2.81,1.37,4.58,3.43,4.44,2.06-.15,3.23-2.09,3.14-4.9Z"/>
        <path class="cls-44" d="M661.49,832.36c1.11-.08,2.22-.17,3.33-.25.83,2.37,1.67,4.74,2.5,7.1.44,1.35.91,2.76,1.34,4.13.04,0,.08,0,.11,0,.34-1.44.7-2.91,1.04-4.32.65-2.48,1.3-4.97,1.95-7.45,1.06-.09,2.12-.17,3.18-.26-1.39,4.8-2.81,9.61-4.24,14.41-1.28.1-2.55.21-3.82.31-1.79-4.55-3.59-9.1-5.39-13.65Z"/>
        <path class="cls-44" d="M675.86,838.26c-.18-4.55,2.87-7.63,6.18-7.92,3.81-.34,5.95,2.21,6.13,6.12.03.63-.02,1.26-.07,1.61-3,.28-5.99.54-8.98.8.38,2.46,2.04,3.74,4.33,3.53,1.21-.11,2.23-.58,3.24-1.31.41.65.81,1.29,1.22,1.94-1.31,1.03-3,1.8-4.8,1.96-3.91.35-7.07-2.11-7.25-6.73ZM685.28,836.08c-.09-2.15-1.12-3.38-3.05-3.21-1.65.14-3.03,1.49-3.23,3.76,2.09-.18,4.18-.37,6.28-.56Z"/>
        <path class="cls-44" d="M690.33,829.93c.91-.08,1.81-.17,2.72-.26.13.82.25,1.65.38,2.47.03,0,.06,0,.09,0,.92-1.92,2.37-3.07,3.88-3.22.72-.07,1.18-.02,1.62.13-.14.97-.29,1.93-.43,2.9-.5-.09-.88-.14-1.47-.09-1.13.11-2.45,1-3.21,3.22.13,2.84.26,5.68.39,8.53-1.11.11-2.22.21-3.33.32-.19-4.66-.41-9.32-.63-13.99Z"/>
        <path class="cls-44" d="M698.56,841.31c-.06-1.29.83-2.32,2.05-2.44,1.22-.12,2.2.73,2.26,2.01.06,1.26-.84,2.3-2.06,2.43-1.22.12-2.2-.73-2.26-1.99Z"/>
      </g>
      <g>
        <path class="cls-71" d="M153.82,1294.2l-8.27-3.35c-5.66-2.25-9.91-3.7-9.91-7.68,0-3.71,3.22-5.82,8.28-5.82s9.19,1.8,13.47,5.08l7.4-9.24c-5.59-5.56-13.4-8.5-20.87-8.5-13.5,0-23.11,8.59-23.11,19.34,0,9.43,6.37,14.95,13.09,17.68l8.43,3.6c5.67,2.33,9.36,3.64,9.36,7.73,0,3.85-3,6.26-9.12,6.26-5.34,0-11.32-2.76-15.94-6.78l-8.42,10.06c6.62,6.18,15.59,9.38,24.03,9.38,15.46,0,24.44-9.33,24.44-20.11,0-9.17-4.95-14.45-12.87-17.65Z"/>
        <path class="cls-71" d="M194.27,1320.47c-3.85,0-6.39-2.25-6.39-7.85v-19.77h11.84v-11.48h-11.84v-13.12h-12.1l-1.71,13.12-7.57.56v10.92h6.75v19.95c0,11.44,4.85,19.15,17.06,19.15,4.79,0,8.35-.96,10.98-1.79l-2.31-10.63c-1.3.47-3.07.94-4.7.94Z"/>
        <path class="cls-71" d="M234.29,1280.18c-5.04,0-10.44,3.23-14.03,9.83h-.36l-1.05-8.63h-11.94v49.39h14.63v-28.62c2.63-6.73,7.16-9.13,10.88-9.13,2.12,0,3.57.36,5.33.8l2.44-12.63c-1.43-.63-3.07-1-5.89-1Z"/>
        <path class="cls-71" d="M263.47,1280.18c-11.86,0-23.3,9.88-23.3,25.91s10.9,25.87,24.98,25.87c5.86,0,12.46-2.06,17.52-5.56l-4.84-8.82c-3.58,2.1-6.94,3.23-10.68,3.23-6.59,0-11.5-3.29-12.81-10.45h29.54c.28-1.19.61-3.83.61-6.47,0-13.48-6.97-23.71-21.04-23.71ZM254.18,1300.67c1-6.24,4.99-9.34,9.61-9.34,5.84,0,8.21,3.91,8.21,9.34h-17.82Z"/>
        <path class="cls-71" d="M311.58,1280.18c-7.76,0-14.83,2.67-21.09,6.5l5.2,9.61c4.79-2.72,8.92-4.46,13.07-4.46,5.36,0,7.52,2.82,7.81,7.14-19.53,2.06-27.81,7.69-27.81,18.1,0,8.32,5.71,14.89,14.72,14.89,5.55,0,10.21-2.6,14.37-6.25h.36l1.05,5.06h11.94v-28.24c0-15.13-6.99-22.35-19.62-22.35ZM316.57,1316.41c-2.6,2.59-4.82,4.23-8.13,4.23-3.48,0-5.67-1.56-5.67-4.74,0-3.73,3.39-6.71,13.8-8.11v8.63Z"/>
        <path class="cls-71" d="M398.46,1280.18c-6.52,0-11.16,3.78-15.51,8.31-2.5-5.32-6.69-8.31-13.63-8.31-6.49,0-10.92,3.45-14.97,7.53h-.36l-1.05-6.33h-11.94v49.39h14.63v-33.32c3.11-3.25,5.96-4.8,8.41-4.8,4.16,0,6.1,2.22,6.1,9.33v28.79h14.63v-33.32c3.11-3.25,5.92-4.8,8.41-4.8,4.16,0,6.1,2.22,6.1,9.33v28.79h14.63v-30.66c0-12.34-4.78-19.92-15.45-19.92Z"/>
        <path class="cls-71" d="M490.88,1286.08c0-15.43-11.28-20.2-25.04-20.2h-23.37v64.88h14.67v-23.35h8.07l12.39,23.35h16.41l-14.68-25.95c6.93-3.13,11.55-9.19,11.55-18.73ZM457.14,1277.52h7.5c7.72,0,11.86,2.14,11.86,8.56s-4.14,9.68-11.86,9.68h-7.5v-18.24Z"/>
        <path class="cls-71" d="M519.22,1280.18c-11.86,0-23.29,9.88-23.29,25.91s10.9,25.87,24.98,25.87c5.85,0,12.46-2.06,17.52-5.56l-4.84-8.82c-3.58,2.1-6.94,3.23-10.68,3.23-6.59,0-11.5-3.29-12.81-10.45h29.55c.28-1.19.61-3.83.61-6.47,0-13.48-6.97-23.71-21.04-23.71ZM509.94,1300.67c1-6.24,4.99-9.34,9.61-9.34,5.84,0,8.21,3.91,8.21,9.34h-17.82Z"/>
        <path class="cls-71" d="M569.45,1301.16c-5.12-1.86-9.74-3.07-9.74-6.22,0-2.46,1.86-3.94,5.64-3.94,3.42,0,6.89,1.66,10.4,4.22l6.55-8.79c-4.2-3.2-9.84-6.25-17.41-6.25-11.4,0-18.87,6.27-18.87,15.46,0,8.16,7.01,12.18,13.07,14.52,5.08,1.99,9.98,3.47,9.98,6.72,0,2.59-1.88,4.25-6.24,4.25s-8.27-1.8-12.74-5.19l-6.58,9.11c5,4.08,12.45,6.9,18.96,6.9,13.24,0,20.29-6.99,20.29-15.93s-7.05-12.55-13.3-14.86Z"/>
        <path class="cls-71" d="M616.91,1280.18c-5.15,0-10.19,2.6-14.06,6.05h-.36l-1.05-4.86h-11.94v67.72h14.63v-14.47l-.49-7.81c3.54,3.29,7.53,5.15,11.78,5.15,10.69,0,20.78-9.72,20.78-26.67,0-15.22-7.32-25.11-19.28-25.11ZM612,1319.98c-2.47,0-5.22-.81-7.88-3.12v-20.28c2.89-3.08,5.48-4.42,8.49-4.42,5.84,0,8.58,4.44,8.58,13.3,0,10.22-4.09,14.53-9.19,14.53Z"/>
        <path class="cls-71" d="M665.23,1280.18c-12.5,0-24.06,9.49-24.06,25.91s11.56,25.87,24.06,25.87,24.06-9.49,24.06-25.87-11.56-25.91-24.06-25.91ZM665.23,1320.15c-6.05,0-9.06-5.51-9.06-14.06s3.01-14.1,9.06-14.1,9.06,5.55,9.06,14.1-3.01,14.06-9.06,14.06Z"/>
        <path class="cls-71" d="M726.03,1280.18c-6.73,0-11.71,3.45-15.87,7.45h-.36l-1.05-6.25h-11.94v49.39h14.63v-33.32c3.22-3.09,5.47-4.8,9.14-4.8,4.23,0,6.13,2.22,6.13,9.33v28.79h14.63v-30.66c0-12.34-4.58-19.92-15.32-19.92Z"/>
        <path class="cls-71" d="M772.84,1301.16c-5.12-1.86-9.74-3.07-9.74-6.22,0-2.46,1.86-3.94,5.64-3.94,3.42,0,6.89,1.66,10.4,4.22l6.55-8.79c-4.2-3.2-9.84-6.25-17.41-6.25-11.4,0-18.87,6.27-18.87,15.46,0,8.16,7.01,12.18,13.07,14.52,5.08,1.99,9.98,3.47,9.98,6.72,0,2.59-1.88,4.25-6.24,4.25s-8.27-1.8-12.74-5.19l-6.58,9.11c5,4.08,12.45,6.9,18.96,6.9,13.24,0,20.29-6.99,20.29-15.93s-7.05-12.55-13.3-14.86Z"/>
        <path class="cls-71" d="M800.21,1258.85c-4.91,0-8.47,3.16-8.47,7.65s3.56,7.65,8.47,7.65,8.47-3.2,8.47-7.65-3.56-7.65-8.47-7.65Z"/>
        <rect class="cls-71" x="792.88" y="1281.37" width="14.63" height="49.39"/>
        <path class="cls-71" d="M845.2,1280.18c-4.66,0-9.32,2.11-13.07,5.47l.36-7.59v-17.04h-14.63v69.74h11.45l1.22-5.27h.36c3.92,4.24,8.48,6.46,12.89,6.46,10.69,0,20.78-9.72,20.78-26.75,0-15.14-7.4-25.03-19.36-25.03ZM840.37,1319.98c-2.47,0-5.26-.81-7.88-3.12v-20.28c2.86-3.08,5.48-4.42,8.49-4.42,5.84,0,8.58,4.44,8.58,13.3,0,10.22-4.09,14.53-9.19,14.53Z"/>
        <path class="cls-71" d="M888.9,1320.15c-1.2,0-2.65-1-2.65-4.13v-54.99h-14.63v54.39c0,9.99,3.43,16.54,13.47,16.54,3.33,0,5.73-.53,7.35-1.22l-1.75-10.79c-.83.2-1.23.2-1.79.2Z"/>
        <path class="cls-71" d="M927.85,1281.37l-5.99,21.25c-1.23,4.64-2.33,9.32-3.43,14h-.4c-1.3-4.84-2.47-9.52-3.9-14l-7.06-21.25h-14.7l19.05,48.12-.74,2.58c-1.28,3.83-3.82,6.48-8.64,6.48-1.07,0-2.41-.4-3.33-.63l-2.6,11.15c2.01.6,3.97,1,7.04,1,11.61,0,16.88-6.41,21.56-18.78l17.14-49.92h-14.01Z"/>
        <path class="cls-71" d="M949.52,1313.53c-5.07,0-8.83,4.02-8.83,9.23s3.76,9.2,8.83,9.2,8.83-4.02,8.83-9.2-3.76-9.23-8.83-9.23Z"/>
      </g>
    </g>
  </g>
</svg>